<?xml version="1.0" encoding="UTF-8"?>
<!DOCTYPE svg PUBLIC "-//W3C//DTD SVG 1.1//EN" "http://www.w3.org/Graphics/SVG/1.1/DTD/svg11.dtd">
<svg xmlns="http://www.w3.org/2000/svg" version="1.1" width="465px" height="536px" style="shape-rendering:geometricPrecision; text-rendering:geometricPrecision; image-rendering:optimizeQuality; fill-rule:evenodd; clip-rule:evenodd" xmlns:xlink="http://www.w3.org/1999/xlink">
<g><path style="opacity:0.525" fill="#6c6c6e" d="M 209.5,-0.5 C 217.5,-0.5 225.5,-0.5 233.5,-0.5C 233.5,-0.166667 233.5,0.166667 233.5,0.5C 226.978,0.176503 220.645,0.509836 214.5,1.5C 212.833,1.5 211.167,1.5 209.5,1.5C 209.5,1.16667 209.5,0.833333 209.5,0.5C 209.5,0.166667 209.5,-0.166667 209.5,-0.5 Z"/></g>
<g><path style="opacity:0.133" fill="#c2c3c5" d="M 209.5,0.5 C 209.5,0.833333 209.5,1.16667 209.5,1.5C 203.491,1.70098 197.491,2.03431 191.5,2.5C 197.261,0.94306 203.261,0.276394 209.5,0.5 Z"/></g>
<g><path style="opacity:0.455" fill="#afafb0" d="M 191.5,2.5 C 190.5,3.16667 189.5,3.83333 188.5,4.5C 186.833,4.5 185.167,4.5 183.5,4.5C 185.905,3.2318 188.572,2.56513 191.5,2.5 Z"/></g>
<g><path style="opacity:0.196" fill="#a8a9a9" d="M 233.5,0.5 C 233.5,0.166667 233.5,-0.166667 233.5,-0.5C 235.167,-0.5 236.833,-0.5 238.5,-0.5C 253.944,1.25649 268.944,4.92316 283.5,10.5C 267.137,5.57527 250.471,2.24194 233.5,0.5 Z"/></g>
<g><path style="opacity:1" fill="#142535" d="M 209.5,1.5 C 211.167,1.5 212.833,1.5 214.5,1.5C 227.346,3.00053 240.346,4.50053 253.5,6C 265.056,8.88729 276.39,12.3873 287.5,16.5C 287.286,18.1439 287.62,19.6439 288.5,21C 295.887,20.4962 301.887,22.9962 306.5,28.5C 305.667,28.8333 304.833,29.1667 304,29.5C 290.566,27.5397 277.066,27.0397 263.5,28C 257.439,30.2909 251.106,31.6242 244.5,32C 240.357,34.0496 236.024,35.7162 231.5,37C 225.34,41.5804 219.007,45.9138 212.5,50C 204.963,57.9942 198.13,66.4942 192,75.5C 189.425,85.0238 187.092,94.6905 185,104.5C 183.509,117.593 181.509,130.593 179,143.5C 178.547,166.997 178.38,190.331 178.5,213.5C 155.837,213.622 133.17,214.455 110.5,216C 107.499,215.906 105.499,217.239 104.5,220C 100.938,220.739 97.7716,222.239 95,224.5C 94.1963,229.751 94.363,234.918 95.5,240C 90.5135,245.824 84.1802,248.324 76.5,247.5C 73.5,247.167 70.5,246.833 67.5,246.5C 65.9412,244.869 63.9412,244.036 61.5,244C 60.9781,243.439 60.6448,242.772 60.5,242C 64.6482,236.851 69.1482,232.018 74,227.5C 75.522,225.259 76.8553,222.926 78,220.5C 80.0526,202.465 82.3859,184.465 85,166.5C 89.5696,146.227 94.2363,125.894 99,105.5C 104.304,94.1951 108.638,82.5284 112,70.5C 118.497,61.5097 124.497,52.1764 130,42.5C 143.443,28.0372 159.277,17.2039 177.5,10C 188.283,6.74387 199.283,4.41053 210.5,3C 203.119,2.6721 195.786,3.1721 188.5,4.5C 189.5,3.83333 190.5,3.16667 191.5,2.5C 197.491,2.03431 203.491,1.70098 209.5,1.5 Z"/></g>
<g><path style="opacity:0.58" fill="#9f9f9f" d="M 183.5,4.5 C 179.915,6.80607 175.915,8.1394 171.5,8.5C 175.195,6.56829 179.195,5.23495 183.5,4.5 Z"/></g>
<g><path style="opacity:0.188" fill="#b5b6b8" d="M 171.5,8.5 C 165.364,12.0696 159.031,15.4029 152.5,18.5C 158.067,13.8815 164.4,10.5482 171.5,8.5 Z"/></g>
<g><path style="opacity:0.157" fill="#b5b5b6" d="M 283.5,10.5 C 296.307,14.3938 307.307,21.0604 316.5,30.5C 311.398,27.2451 306.398,23.7451 301.5,20C 295.178,17.0109 289.178,13.8442 283.5,10.5 Z"/></g>
<g><path style="opacity:1" fill="#fdf6d9" d="M 303.5,34.5 C 306.529,36.9052 309.863,37.7385 313.5,37C 314.647,39.0846 313.98,40.5846 311.5,41.5C 313.335,42.4277 313.668,43.5944 312.5,45C 313.549,45.4922 314.549,45.3256 315.5,44.5C 316.251,45.376 316.751,46.376 317,47.5C 320.654,43.3631 323.154,44.0297 324.5,49.5C 329.667,48.4919 331.334,50.3252 329.5,55C 330.759,55.9234 332.092,56.7568 333.5,57.5C 332.833,58.5 332.167,59.5 331.5,60.5C 334.153,62.7706 336.986,64.7706 340,66.5C 339.76,70.2204 341.26,72.887 344.5,74.5C 345.079,77.3311 346.412,79.6644 348.5,81.5C 348.674,83.861 349.007,86.1944 349.5,88.5C 347.901,88.2322 346.568,88.5655 345.5,89.5C 345.167,89.5 344.833,89.5 344.5,89.5C 341.284,89.3455 338.617,90.3455 336.5,92.5C 336.167,92.5 335.833,92.5 335.5,92.5C 332.545,94.1223 329.878,96.1223 327.5,98.5C 325.14,97.0838 323.14,97.4172 321.5,99.5C 322.601,101.988 321.934,103.988 319.5,105.5C 318.792,108.366 318.125,111.2 317.5,114C 318.704,115.353 319.371,117.019 319.5,119C 319.819,123.091 318.486,124.091 315.5,122C 311.167,121.667 306.833,121.333 302.5,121C 301.251,119.176 300.085,119.343 299,121.5C 298.51,122.793 298.343,124.127 298.5,125.5C 296.007,125.131 295.34,125.797 296.5,127.5C 295.207,129.296 293.707,130.963 292,132.5C 291.51,133.793 291.343,135.127 291.5,136.5C 290.357,139.976 290.19,143.642 291,147.5C 291.759,149.063 292.926,150.063 294.5,150.5C 296.167,151.5 297.5,152.833 298.5,154.5C 298.833,155.5 299.5,156.167 300.5,156.5C 321.66,157.497 342.993,157.831 364.5,157.5C 364.334,166.506 364.5,175.506 365,184.5C 366.118,189.841 366.952,195.174 367.5,200.5C 367.5,201.833 367.5,203.167 367.5,204.5C 347.658,204.681 327.991,205.348 308.5,206.5C 305.941,206.198 303.607,206.532 301.5,207.5C 262.488,208.272 223.488,209.272 184.5,210.5C 183.395,186.171 183.395,161.838 184.5,137.5C 184.325,135.379 184.659,133.379 185.5,131.5C 186.296,123.165 187.796,114.831 190,106.5C 191.5,105.333 193,104.167 194.5,103C 192.003,100.517 191.336,97.6839 192.5,94.5C 193.984,90.8677 195.984,87.5344 198.5,84.5C 198.291,83.914 197.957,83.414 197.5,83C 200.732,76.037 204.066,69.2037 207.5,62.5C 212.5,56.8333 217.833,51.5 223.5,46.5C 228.07,45.5484 232.07,43.5484 235.5,40.5C 237.684,38.4152 240.351,37.4152 243.5,37.5C 252.294,35.9657 260.961,34.1324 269.5,32C 281.013,30.9203 292.347,31.7536 303.5,34.5 Z"/></g>
<g><path style="opacity:1" fill="#b6b3a0" d="M 271.5,30.5 C 282.185,30.3897 292.852,30.723 303.5,31.5C 306.642,32.7903 309.975,33.7903 313.5,34.5C 313.5,34.8333 313.5,35.1667 313.5,35.5C 310.193,34.9492 306.86,34.6159 303.5,34.5C 292.347,31.7536 281.013,30.9203 269.5,32C 260.961,34.1324 252.294,35.9657 243.5,37.5C 244.842,36.207 246.509,35.3736 248.5,35C 256.033,32.7657 263.699,31.2657 271.5,30.5 Z"/></g>
<g><path style="opacity:0.286" fill="#bcbbbc" d="M 316.5,30.5 C 320.522,32.5216 323.522,35.5216 325.5,39.5C 323.5,37.8333 321.5,36.1667 319.5,34.5C 317.738,33.7377 316.738,32.4044 316.5,30.5 Z"/></g>
<g><path style="opacity:1" fill="#ece7cf" d="M 303.5,34.5 C 306.86,34.6159 310.193,34.9492 313.5,35.5C 317.417,37.412 321.083,39.7454 324.5,42.5C 325.08,44.7488 326.413,46.4154 328.5,47.5C 335.466,54.7969 340.799,63.1302 344.5,72.5C 344.5,73.1667 344.5,73.8333 344.5,74.5C 341.26,72.887 339.76,70.2204 340,66.5C 336.986,64.7706 334.153,62.7706 331.5,60.5C 332.167,59.5 332.833,58.5 333.5,57.5C 332.092,56.7568 330.759,55.9234 329.5,55C 331.334,50.3252 329.667,48.4919 324.5,49.5C 323.154,44.0297 320.654,43.3631 317,47.5C 316.751,46.376 316.251,45.376 315.5,44.5C 314.549,45.3256 313.549,45.4922 312.5,45C 313.668,43.5944 313.335,42.4277 311.5,41.5C 313.98,40.5846 314.647,39.0846 313.5,37C 309.863,37.7385 306.529,36.9052 303.5,34.5 Z"/></g>
<g><path style="opacity:0.655" fill="#969690" d="M 325.5,39.5 C 328.903,41.8998 331.57,44.8998 333.5,48.5C 330.097,46.1002 327.43,43.1002 325.5,39.5 Z"/></g>
<g><path style="opacity:0.353" fill="#b9b9ba" d="M 152.5,18.5 C 138.792,28.541 127.125,40.541 117.5,54.5C 125.783,39.2172 137.449,27.2172 152.5,18.5 Z"/></g>
<g><path style="opacity:1" fill="#939386" d="M 235.5,40.5 C 232.07,43.5484 228.07,45.5484 223.5,46.5C 226.803,43.1726 230.803,41.1726 235.5,40.5 Z"/></g>
<g><path style="opacity:1" fill="#8e8a7c" d="M 324.5,42.5 C 326.587,43.5846 327.92,45.2512 328.5,47.5C 326.413,46.4154 325.08,44.7488 324.5,42.5 Z"/></g>
<g><path style="opacity:0.396" fill="#a3a3a1" d="M 333.5,48.5 C 335.262,49.2623 336.262,50.5956 336.5,52.5C 334.738,51.7377 333.738,50.4044 333.5,48.5 Z"/></g>
<g><path style="opacity:0.282" fill="#adadab" d="M 336.5,52.5 C 337.906,52.9731 338.573,53.9731 338.5,55.5C 337.094,55.0269 336.427,54.0269 336.5,52.5 Z"/></g>
<g><path style="opacity:0.251" fill="#b2afac" d="M 338.5,55.5 C 339.906,55.9731 340.573,56.9731 340.5,58.5C 339.094,58.0269 338.427,57.0269 338.5,55.5 Z"/></g>
<g><path style="opacity:1" fill="#918f83" d="M 223.5,46.5 C 217.833,51.5 212.5,56.8333 207.5,62.5C 206.167,63.5 204.833,64.5 203.5,65.5C 208.548,57.4513 215.215,51.118 223.5,46.5 Z"/></g>
<g><path style="opacity:0.263" fill="#b6b8b5" d="M 341.5,60.5 C 342.906,60.9731 343.573,61.9731 343.5,63.5C 342.094,63.0269 341.427,62.0269 341.5,60.5 Z"/></g>
<g><path style="opacity:0.188" fill="#c2c3c2" d="M 117.5,54.5 C 114.085,61.6654 110.418,68.6654 106.5,75.5C 108.876,67.7459 112.542,60.7459 117.5,54.5 Z"/></g>
<g><path style="opacity:0.173" fill="#cbcbcb" d="M 343.5,63.5 C 344.906,63.9731 345.573,64.9731 345.5,66.5C 344.094,66.0269 343.427,65.0269 343.5,63.5 Z"/></g>
<g><path style="opacity:1" fill="#62645c" d="M 203.5,65.5 C 202.92,67.7488 201.587,69.4154 199.5,70.5C 200.08,68.2512 201.413,66.5846 203.5,65.5 Z"/></g>
<g><path style="opacity:0.737" fill="#999992" d="M 345.5,66.5 C 346.674,67.5137 347.34,68.847 347.5,70.5C 345.824,69.8166 345.157,68.4832 345.5,66.5 Z"/></g>
<g><path style="opacity:0.929" fill="#33322b" d="M 313.5,35.5 C 313.5,35.1667 313.5,34.8333 313.5,34.5C 315.741,34.9539 317.741,34.9539 319.5,34.5C 321.5,36.1667 323.5,37.8333 325.5,39.5C 327.43,43.1002 330.097,46.1002 333.5,48.5C 333.738,50.4044 334.738,51.7377 336.5,52.5C 336.427,54.0269 337.094,55.0269 338.5,55.5C 338.427,57.0269 339.094,58.0269 340.5,58.5C 341.338,58.8417 341.672,59.5084 341.5,60.5C 341.427,62.0269 342.094,63.0269 343.5,63.5C 343.427,65.0269 344.094,66.0269 345.5,66.5C 345.157,68.4832 345.824,69.8166 347.5,70.5C 348.059,73.9433 349.393,76.9433 351.5,79.5C 351.959,82.8774 352.626,86.2107 353.5,89.5C 349.606,90.5934 345.606,91.2601 341.5,91.5C 342.5,90.8333 343.5,90.1667 344.5,89.5C 344.833,89.5 345.167,89.5 345.5,89.5C 347.167,89.5 348.833,89.5 350.5,89.5C 350.889,86.4467 350.223,83.78 348.5,81.5C 347.925,78.0884 346.592,75.0884 344.5,72.5C 340.799,63.1302 335.466,54.7969 328.5,47.5C 327.92,45.2512 326.587,43.5846 324.5,42.5C 321.083,39.7454 317.417,37.412 313.5,35.5 Z"/></g>
<g><path style="opacity:0.196" fill="#bcbcba" d="M 347.5,70.5 C 349.592,73.0884 350.925,76.0884 351.5,79.5C 349.393,76.9433 348.059,73.9433 347.5,70.5 Z"/></g>
<g><path style="opacity:1" fill="#a19f8e" d="M 344.5,72.5 C 346.592,75.0884 347.925,78.0884 348.5,81.5C 346.412,79.6644 345.079,77.3311 344.5,74.5C 344.5,73.8333 344.5,73.1667 344.5,72.5 Z"/></g>
<g><path style="opacity:1" fill="#dedac5" d="M 207.5,62.5 C 204.066,69.2037 200.732,76.037 197.5,83C 197.957,83.414 198.291,83.914 198.5,84.5C 195.984,87.5344 193.984,90.8677 192.5,94.5C 191.336,97.6839 192.003,100.517 194.5,103C 193,104.167 191.5,105.333 190,106.5C 187.796,114.831 186.296,123.165 185.5,131.5C 185.5,128.167 185.5,124.833 185.5,121.5C 185.844,117.106 186.51,112.772 187.5,108.5C 189.237,104.458 190.237,100.124 190.5,95.5C 191.394,91.5323 192.227,87.5323 193,83.5C 195.726,79.3812 197.893,75.0479 199.5,70.5C 201.587,69.4154 202.92,67.7488 203.5,65.5C 204.833,64.5 206.167,63.5 207.5,62.5 Z"/></g>
<g><path style="opacity:0.784" fill="#9e9d9c" d="M 105.5,77.5 C 105.397,80.6358 104.397,83.3025 102.5,85.5C 102.733,82.4582 103.733,79.7916 105.5,77.5 Z"/></g>
<g><path style="opacity:1" fill="#747165" d="M 240.5,89.5 C 248.75,88.0174 256.417,89.684 263.5,94.5C 263.5,94.8333 263.5,95.1667 263.5,95.5C 256.965,91.8772 249.965,89.8772 242.5,89.5C 241.833,89.5 241.167,89.5 240.5,89.5 Z"/></g>
<g><path style="opacity:1" fill="#a9a799" d="M 348.5,81.5 C 350.223,83.78 350.889,86.4467 350.5,89.5C 348.833,89.5 347.167,89.5 345.5,89.5C 346.568,88.5655 347.901,88.2322 349.5,88.5C 349.007,86.1944 348.674,83.861 348.5,81.5 Z"/></g>
<g><path style="opacity:1" fill="#35332a" d="M 240.5,89.5 C 241.167,89.5 241.833,89.5 242.5,89.5C 238.433,91.0538 234.1,91.7204 229.5,91.5C 232.876,89.9177 236.542,89.2511 240.5,89.5 Z"/></g>
<g><path style="opacity:1" fill="#030303" d="M 242.5,89.5 C 249.965,89.8772 256.965,91.8772 263.5,95.5C 264.904,98.6619 267.071,101.329 270,103.5C 270.528,104.816 270.028,105.483 268.5,105.5C 267.738,103.738 266.404,102.738 264.5,102.5C 262.815,100.182 260.481,99.1824 257.5,99.5C 257.389,98.8826 257.056,98.3826 256.5,98C 252.5,97.3333 248.5,97.3333 244.5,98C 243.748,98.6708 243.414,99.5041 243.5,100.5C 242.883,100.611 242.383,100.944 242,101.5C 241.199,104.367 241.366,107.034 242.5,109.5C 242.045,112.931 243.379,115.264 246.5,116.5C 247.911,118.914 249.911,120.581 252.5,121.5C 253.681,123.067 255.347,123.901 257.5,124C 260.039,124.796 262.372,124.629 264.5,123.5C 264.833,123.5 265.167,123.5 265.5,123.5C 268.919,122.958 270.586,120.958 270.5,117.5C 272.13,115.974 272.963,113.974 273,111.5C 273.665,118.195 273.498,124.862 272.5,131.5C 272.167,132.833 271.833,134.167 271.5,135.5C 268.734,138.164 266.067,140.997 263.5,144C 261.807,144.847 260.14,145.68 258.5,146.5C 248.671,148.792 238.671,149.125 228.5,147.5C 227.609,146.89 226.609,146.557 225.5,146.5C 224.089,144.086 222.089,142.419 219.5,141.5C 218.833,141.167 218.167,140.833 217.5,140.5C 215.438,136.516 213.271,132.516 211,128.5C 210.501,123.177 210.334,117.844 210.5,112.5C 211.363,110.579 212.029,108.579 212.5,106.5C 214.063,105.055 215.396,103.389 216.5,101.5C 218.833,99.8333 220.833,97.8333 222.5,95.5C 225.1,94.5324 227.434,93.1991 229.5,91.5C 234.1,91.7204 238.433,91.0538 242.5,89.5 Z"/></g>
<g><path style="opacity:1" fill="#060504" d="M 353.5,89.5 C 353.5,90.8333 353.5,92.1667 353.5,93.5C 351.284,94.2026 349.451,95.5359 348,97.5C 347.333,100.833 347.333,104.167 348,107.5C 348.708,108.381 349.542,109.047 350.5,109.5C 352.167,110.5 353.5,111.833 354.5,113.5C 357.686,116.897 361.686,118.23 366.5,117.5C 368.833,117.333 371.167,117.167 373.5,117C 374.381,116.292 375.047,115.458 375.5,114.5C 376.391,113.89 377.391,113.557 378.5,113.5C 379.094,115.41 379.427,117.41 379.5,119.5C 379.038,123.546 378.372,127.546 377.5,131.5C 373.705,133.669 373.039,136.336 375.5,139.5C 374.167,139.5 372.833,139.5 371.5,139.5C 368.211,138.626 364.877,137.959 361.5,137.5C 360.833,137.5 360.167,137.5 359.5,137.5C 357.898,135.926 355.898,135.259 353.5,135.5C 351.898,133.926 349.898,133.259 347.5,133.5C 343.817,131.75 339.817,131.083 335.5,131.5C 329.517,129.169 323.183,127.835 316.5,127.5C 315.737,126.732 314.737,126.232 313.5,126C 314.094,125.536 314.761,125.369 315.5,125.5C 317.5,125.5 319.5,125.5 321.5,125.5C 321.274,120.438 321.608,115.438 322.5,110.5C 324.951,107.26 326.618,103.593 327.5,99.5C 330.784,97.883 333.451,95.5497 335.5,92.5C 335.833,92.5 336.167,92.5 336.5,92.5C 338.117,91.962 339.784,91.6287 341.5,91.5C 345.606,91.2601 349.606,90.5934 353.5,89.5 Z"/></g>
<g><path style="opacity:1" fill="#8d8d7b" d="M 344.5,89.5 C 343.5,90.1667 342.5,90.8333 341.5,91.5C 339.784,91.6287 338.117,91.962 336.5,92.5C 338.617,90.3455 341.284,89.3455 344.5,89.5 Z"/></g>
<g><path style="opacity:0.353" fill="#afafaf" d="M 351.5,79.5 C 353.198,82.2314 354.531,85.2314 355.5,88.5C 360.036,89.6156 364.036,91.6156 367.5,94.5C 362.763,92.8293 358.097,91.1626 353.5,89.5C 352.626,86.2107 351.959,82.8774 351.5,79.5 Z"/></g>
<g><path style="opacity:1" fill="#686558" d="M 229.5,91.5 C 227.434,93.1991 225.1,94.5324 222.5,95.5C 223.855,92.4823 226.188,91.149 229.5,91.5 Z"/></g>
<g><path style="opacity:0.043" fill="#c8c8c8" d="M 367.5,94.5 C 370.833,95.8333 373.167,98.1667 374.5,101.5C 371.833,99.5 369.5,97.1667 367.5,94.5 Z"/></g>
<g><path style="opacity:1" fill="#6e6b5c" d="M 335.5,92.5 C 333.451,95.5497 330.784,97.883 327.5,99.5C 327.5,99.1667 327.5,98.8333 327.5,98.5C 329.878,96.1223 332.545,94.1223 335.5,92.5 Z"/></g>
<g><path style="opacity:1" fill="#f7f7f7" d="M 359.5,94.5 C 362.269,95.4373 364.936,96.6039 367.5,98C 368.381,98.7083 369.047,99.5416 369.5,100.5C 370.737,103.277 372.237,105.944 374,108.5C 375.5,114.697 373,117.364 366.5,116.5C 362.452,115.611 358.452,114.611 354.5,113.5C 353.5,111.833 352.167,110.5 350.5,109.5C 345.662,99.6856 348.662,94.6856 359.5,94.5 Z"/></g>
<g><path style="opacity:1" fill="#474747" d="M 353.5,89.5 C 358.097,91.1626 362.763,92.8293 367.5,94.5C 369.5,97.1667 371.833,99.5 374.5,101.5C 374.427,103.027 375.094,104.027 376.5,104.5C 377.167,107.5 377.833,110.5 378.5,113.5C 377.391,113.557 376.391,113.89 375.5,114.5C 375.776,108.8 373.776,104.134 369.5,100.5C 369.047,99.5416 368.381,98.7083 367.5,98C 364.936,96.6039 362.269,95.4373 359.5,94.5C 357.735,93.5386 355.735,93.2053 353.5,93.5C 353.5,92.1667 353.5,90.8333 353.5,89.5 Z"/></g>
<g><path style="opacity:1" fill="#575757" d="M 257.5,99.5 C 253.554,98.4731 249.554,98.3064 245.5,99C 244.944,99.3826 244.611,99.8826 244.5,100.5C 244.167,100.5 243.833,100.5 243.5,100.5C 243.414,99.5041 243.748,98.6708 244.5,98C 248.5,97.3333 252.5,97.3333 256.5,98C 257.056,98.3826 257.389,98.8826 257.5,99.5 Z"/></g>
<g><path style="opacity:1" fill="#3e3d35" d="M 263.5,95.5 C 272.764,102.797 276.764,112.463 275.5,124.5C 275.065,127.157 274.065,129.491 272.5,131.5C 273.498,124.862 273.665,118.195 273,111.5C 272.963,113.974 272.13,115.974 270.5,117.5C 271.573,115.347 271.573,113.347 270.5,111.5C 270.747,109.142 270.081,107.142 268.5,105.5C 270.028,105.483 270.528,104.816 270,103.5C 267.071,101.329 264.904,98.6619 263.5,95.5 Z"/></g>
<g><path style="opacity:1" fill="#686657" d="M 222.5,95.5 C 220.833,97.8333 218.833,99.8333 216.5,101.5C 217.5,98.5 219.5,96.5 222.5,95.5 Z"/></g>
<g><path style="opacity:1" fill="#cdcdcd" d="M 257.5,99.5 C 260.481,99.1824 262.815,100.182 264.5,102.5C 257.906,101.182 251.24,100.515 244.5,100.5C 244.611,99.8826 244.944,99.3826 245.5,99C 249.554,98.3064 253.554,98.4731 257.5,99.5 Z"/></g>
<g><path style="opacity:0.157" fill="#aaaaac" d="M 102.5,85.5 C 97.9572,101.367 93.2905,117.033 88.5,132.5C 91.5812,116.266 96.2479,100.599 102.5,85.5 Z"/></g>
<g><path style="opacity:1" fill="#f8f8f8" d="M 243.5,100.5 C 243.833,100.5 244.167,100.5 244.5,100.5C 251.24,100.515 257.906,101.182 264.5,102.5C 266.773,105.398 268.773,108.398 270.5,111.5C 271.573,113.347 271.573,115.347 270.5,117.5C 268.863,119.475 267.196,121.475 265.5,123.5C 265.167,123.5 264.833,123.5 264.5,123.5C 260.426,123.218 256.426,122.552 252.5,121.5C 251.089,119.086 249.089,117.419 246.5,116.5C 245.416,113.996 244.083,111.663 242.5,109.5C 242.368,106.43 242.701,103.43 243.5,100.5 Z"/></g>
<g><path style="opacity:1" fill="#6c6c6c" d="M 353.5,93.5 C 355.735,93.2053 357.735,93.5386 359.5,94.5C 348.662,94.6856 345.662,99.6856 350.5,109.5C 349.542,109.047 348.708,108.381 348,107.5C 347.333,104.167 347.333,100.833 348,97.5C 349.451,95.5359 351.284,94.2026 353.5,93.5 Z"/></g>
<g><path style="opacity:1" fill="#989483" d="M 216.5,101.5 C 215.396,103.389 214.063,105.055 212.5,106.5C 212.67,103.796 214.003,102.129 216.5,101.5 Z"/></g>
<g><path style="opacity:0.173" fill="#cfcfcf" d="M 374.5,101.5 C 375.906,101.973 376.573,102.973 376.5,104.5C 375.094,104.027 374.427,103.027 374.5,101.5 Z"/></g>
<g><path style="opacity:1" fill="#636363" d="M 243.5,100.5 C 242.701,103.43 242.368,106.43 242.5,109.5C 241.366,107.034 241.199,104.367 242,101.5C 242.383,100.944 242.883,100.611 243.5,100.5 Z"/></g>
<g><path style="opacity:1" fill="#d9d6c2" d="M 263.5,95.5 C 263.5,95.1667 263.5,94.8333 263.5,94.5C 266.144,96.6281 269.144,98.1281 272.5,99C 272.963,101.585 274.13,103.752 276,105.5C 276.82,112.014 276.653,118.347 275.5,124.5C 276.764,112.463 272.764,102.797 263.5,95.5 Z"/></g>
<g><path style="opacity:1" fill="#3f3d33" d="M 327.5,99.5 C 326.618,103.593 324.951,107.26 322.5,110.5C 322.5,109.833 322.5,109.167 322.5,108.5C 323.41,105.008 325.076,102.008 327.5,99.5 Z"/></g>
<g><path style="opacity:1" fill="#919190" d="M 264.5,102.5 C 266.404,102.738 267.738,103.738 268.5,105.5C 270.081,107.142 270.747,109.142 270.5,111.5C 268.773,108.398 266.773,105.398 264.5,102.5 Z"/></g>
<g><path style="opacity:1" fill="#706f63" d="M 190.5,95.5 C 190.237,100.124 189.237,104.458 187.5,108.5C 187.952,104.837 188.452,101.17 189,97.5C 189.278,96.5842 189.778,95.9175 190.5,95.5 Z"/></g>
<g><path style="opacity:1" fill="#595959" d="M 242.5,109.5 C 244.083,111.663 245.416,113.996 246.5,116.5C 243.379,115.264 242.045,112.931 242.5,109.5 Z"/></g>
<g><path style="opacity:1" fill="#9b9b9b" d="M 369.5,100.5 C 373.776,104.134 375.776,108.8 375.5,114.5C 375.047,115.458 374.381,116.292 373.5,117C 371.167,117.167 368.833,117.333 366.5,117.5C 361.686,118.23 357.686,116.897 354.5,113.5C 358.452,114.611 362.452,115.611 366.5,116.5C 373,117.364 375.5,114.697 374,108.5C 372.237,105.944 370.737,103.277 369.5,100.5 Z"/></g>
<g><path style="opacity:1" fill="#9a9a9a" d="M 246.5,116.5 C 249.089,117.419 251.089,119.086 252.5,121.5C 249.911,120.581 247.911,118.914 246.5,116.5 Z"/></g>
<g><path style="opacity:1" fill="#7f7b6e" d="M 322.5,108.5 C 322.5,109.167 322.5,109.833 322.5,110.5C 321.608,115.438 321.274,120.438 321.5,125.5C 319.5,125.5 317.5,125.5 315.5,125.5C 315.5,125.167 315.5,124.833 315.5,124.5C 317.167,124.5 318.833,124.5 320.5,124.5C 320.334,120.154 320.501,115.821 321,111.5C 321.232,110.263 321.732,109.263 322.5,108.5 Z"/></g>
<g><path style="opacity:1" fill="#e6e2ca" d="M 327.5,98.5 C 327.5,98.8333 327.5,99.1667 327.5,99.5C 325.076,102.008 323.41,105.008 322.5,108.5C 321.732,109.263 321.232,110.263 321,111.5C 320.501,115.821 320.334,120.154 320.5,124.5C 318.833,124.5 317.167,124.5 315.5,124.5C 313.565,123.85 311.565,123.517 309.5,123.5C 305.255,121.579 301.922,122.579 299.5,126.5C 298.391,126.557 297.391,126.89 296.5,127.5C 295.34,125.797 296.007,125.131 298.5,125.5C 298.343,124.127 298.51,122.793 299,121.5C 300.085,119.343 301.251,119.176 302.5,121C 306.833,121.333 311.167,121.667 315.5,122C 318.486,124.091 319.819,123.091 319.5,119C 319.371,117.019 318.704,115.353 317.5,114C 318.125,111.2 318.792,108.366 319.5,105.5C 321.934,103.988 322.601,101.988 321.5,99.5C 323.14,97.4172 325.14,97.0838 327.5,98.5 Z"/></g>
<g><path style="opacity:1" fill="#7f7d6f" d="M 210.5,112.5 C 210.334,117.844 210.501,123.177 211,128.5C 213.271,132.516 215.438,136.516 217.5,140.5C 214.203,137.264 211.37,133.597 209,129.5C 208.333,124.5 208.333,119.5 209,114.5C 209.278,113.584 209.778,112.918 210.5,112.5 Z"/></g>
<g><path style="opacity:1" fill="#696969" d="M 270.5,117.5 C 270.586,120.958 268.919,122.958 265.5,123.5C 267.196,121.475 268.863,119.475 270.5,117.5 Z"/></g>
<g><path style="opacity:1" fill="#8a8a8a" d="M 252.5,121.5 C 256.426,122.552 260.426,123.218 264.5,123.5C 262.372,124.629 260.039,124.796 257.5,124C 255.347,123.901 253.681,123.067 252.5,121.5 Z"/></g>
<g><path style="opacity:1" fill="#847d6e" d="M 309.5,123.5 C 305.662,123.022 302.329,124.022 299.5,126.5C 301.922,122.579 305.255,121.579 309.5,123.5 Z"/></g>
<g><path style="opacity:0.306" fill="#bababa" d="M 376.5,104.5 C 382.319,113.383 382.653,122.383 377.5,131.5C 378.372,127.546 379.038,123.546 379.5,119.5C 379.427,117.41 379.094,115.41 378.5,113.5C 377.833,110.5 377.167,107.5 376.5,104.5 Z"/></g>
<g><path style="opacity:1" fill="#5a470b" d="M 316.5,127.5 C 323.183,127.835 329.517,129.169 335.5,131.5C 328.891,130.951 322.558,129.618 316.5,127.5 Z"/></g>
<g><path style="opacity:1" fill="#757161" d="M 299.5,126.5 C 297.539,128.963 295.372,131.297 293,133.5C 292.501,137.821 292.334,142.154 292.5,146.5C 291.521,143.375 291.187,140.042 291.5,136.5C 291.343,135.127 291.51,133.793 292,132.5C 293.707,130.963 295.207,129.296 296.5,127.5C 297.391,126.89 298.391,126.557 299.5,126.5 Z"/></g>
<g><path style="opacity:1" fill="#877519" d="M 303.5,127.5 C 303.167,128.167 302.833,128.833 302.5,129.5C 300.167,131.5 297.833,133.5 295.5,135.5C 297.167,131.833 299.833,129.167 303.5,127.5 Z"/></g>
<g><path style="opacity:1" fill="#c4a42c" d="M 316.5,127.5 C 322.558,129.618 328.891,130.951 335.5,131.5C 335.5,131.833 335.5,132.167 335.5,132.5C 326.965,131.569 318.465,130.236 310,128.5C 307.449,128.625 304.949,128.958 302.5,129.5C 302.833,128.833 303.167,128.167 303.5,127.5C 307.808,126.35 312.141,126.35 316.5,127.5 Z"/></g>
<g><path style="opacity:1" fill="#898778" d="M 185.5,121.5 C 185.5,124.833 185.5,128.167 185.5,131.5C 184.659,133.379 184.325,135.379 184.5,137.5C 184.167,137.5 183.833,137.5 183.5,137.5C 183.782,131.979 184.449,126.646 185.5,121.5 Z"/></g>
<g><path style="opacity:1" fill="#3f3108" d="M 335.5,132.5 C 335.5,132.167 335.5,131.833 335.5,131.5C 339.817,131.083 343.817,131.75 347.5,133.5C 346.167,133.5 344.833,133.5 343.5,133.5C 340.833,133.167 338.167,132.833 335.5,132.5 Z"/></g>
<g><path style="opacity:1" fill="#111417" d="M 233.5,0.5 C 250.471,2.24194 267.137,5.57527 283.5,10.5C 289.178,13.8442 295.178,17.0109 301.5,20C 306.398,23.7451 311.398,27.2451 316.5,30.5C 316.738,32.4044 317.738,33.7377 319.5,34.5C 317.741,34.9539 315.741,34.9539 313.5,34.5C 309.975,33.7903 306.642,32.7903 303.5,31.5C 297.405,29.9865 291.072,29.3198 284.5,29.5C 279.987,29.5009 275.653,29.8343 271.5,30.5C 263.699,31.2657 256.033,32.7657 248.5,35C 246.509,35.3736 244.842,36.207 243.5,37.5C 240.351,37.4152 237.684,38.4152 235.5,40.5C 230.803,41.1726 226.803,43.1726 223.5,46.5C 215.215,51.118 208.548,57.4513 203.5,65.5C 201.413,66.5846 200.08,68.2512 199.5,70.5C 197.893,75.0479 195.726,79.3812 193,83.5C 192.227,87.5323 191.394,91.5323 190.5,95.5C 189.778,95.9175 189.278,96.5842 189,97.5C 188.452,101.17 187.952,104.837 187.5,108.5C 186.51,112.772 185.844,117.106 185.5,121.5C 184.449,126.646 183.782,131.979 183.5,137.5C 182.691,139.292 182.191,141.292 182,143.5C 181.5,150.158 181.334,156.825 181.5,163.5C 180.668,179.995 180.168,196.662 180,213.5C 178.009,214.992 175.842,215.992 173.5,216.5C 173.5,216.833 173.5,217.167 173.5,217.5C 157.153,217.36 140.82,217.693 124.5,218.5C 120.486,218.334 116.486,218.501 112.5,219C 110.16,220.641 107.827,222.141 105.5,223.5C 103.033,223.755 101.033,224.755 99.5,226.5C 98.5041,226.414 97.6708,226.748 97,227.5C 96.183,232.663 96.683,237.663 98.5,242.5C 95.0738,244.076 91.7405,245.909 88.5,248C 87.2068,248.49 85.8734,248.657 84.5,248.5C 78.1579,248.666 71.8246,248.5 65.5,248C 62.4388,245.965 59.1055,244.799 55.5,244.5C 55.5569,243.391 55.8902,242.391 56.5,241.5C 59.8059,236.194 64.1393,231.861 69.5,228.5C 71.5041,227.327 73.0041,225.66 74,223.5C 74.4992,218.845 74.6658,214.179 74.5,209.5C 74.5,208.833 74.5,208.167 74.5,207.5C 74.5,207.167 74.5,206.833 74.5,206.5C 75.4614,204.735 75.7947,202.735 75.5,200.5C 67.5,199.833 59.5,199.167 51.5,198.5C 54.3854,198.806 57.0521,198.473 59.5,197.5C 65.5,197.5 71.5,197.5 77.5,197.5C 77.5,195.5 77.5,193.5 77.5,191.5C 79.6013,185.132 80.6013,178.465 80.5,171.5C 80.3253,169.379 80.6586,167.379 81.5,165.5C 83.0114,162.456 83.678,159.122 83.5,155.5C 83.5,155.167 83.5,154.833 83.5,154.5C 85.0395,152.162 85.7062,149.495 85.5,146.5C 85.5,146.167 85.5,145.833 85.5,145.5C 87.0395,143.162 87.7062,140.495 87.5,137.5C 87.2155,135.585 87.5489,133.919 88.5,132.5C 93.2905,117.033 97.9572,101.367 102.5,85.5C 104.397,83.3025 105.397,80.6358 105.5,77.5C 105.328,76.5084 105.662,75.8417 106.5,75.5C 110.418,68.6654 114.085,61.6654 117.5,54.5C 127.125,40.541 138.792,28.541 152.5,18.5C 159.031,15.4029 165.364,12.0696 171.5,8.5C 175.915,8.1394 179.915,6.80607 183.5,4.5C 185.167,4.5 186.833,4.5 188.5,4.5C 195.786,3.1721 203.119,2.6721 210.5,3C 199.283,4.41053 188.283,6.74387 177.5,10C 159.277,17.2039 143.443,28.0372 130,42.5C 124.497,52.1764 118.497,61.5097 112,70.5C 108.638,82.5284 104.304,94.1951 99,105.5C 94.2363,125.894 89.5696,146.227 85,166.5C 82.3859,184.465 80.0526,202.465 78,220.5C 76.8553,222.926 75.522,225.259 74,227.5C 69.1482,232.018 64.6482,236.851 60.5,242C 60.6448,242.772 60.9781,243.439 61.5,244C 63.9412,244.036 65.9412,244.869 67.5,246.5C 70.5,246.833 73.5,247.167 76.5,247.5C 84.1802,248.324 90.5135,245.824 95.5,240C 94.363,234.918 94.1963,229.751 95,224.5C 97.7716,222.239 100.938,220.739 104.5,220C 105.499,217.239 107.499,215.906 110.5,216C 133.17,214.455 155.837,213.622 178.5,213.5C 178.38,190.331 178.547,166.997 179,143.5C 181.509,130.593 183.509,117.593 185,104.5C 187.092,94.6905 189.425,85.0238 192,75.5C 198.13,66.4942 204.963,57.9942 212.5,50C 219.007,45.9138 225.34,41.5804 231.5,37C 236.024,35.7162 240.357,34.0496 244.5,32C 251.106,31.6242 257.439,30.2909 263.5,28C 277.066,27.0397 290.566,27.5397 304,29.5C 304.833,29.1667 305.667,28.8333 306.5,28.5C 301.887,22.9962 295.887,20.4962 288.5,21C 287.62,19.6439 287.286,18.1439 287.5,16.5C 276.39,12.3873 265.056,8.88729 253.5,6C 240.346,4.50053 227.346,3.00053 214.5,1.5C 220.645,0.509836 226.978,0.176503 233.5,0.5 Z"/></g>
<g><path style="opacity:1" fill="#34362d" d="M 271.5,30.5 C 275.653,29.8343 279.987,29.5009 284.5,29.5C 291.072,29.3198 297.405,29.9865 303.5,31.5C 292.852,30.723 282.185,30.3897 271.5,30.5 Z"/></g>
<g><path style="opacity:1" fill="#8e7418" d="M 343.5,133.5 C 344.833,133.5 346.167,133.5 347.5,133.5C 349.102,135.074 351.102,135.741 353.5,135.5C 355.898,135.259 357.898,135.926 359.5,137.5C 357.435,137.483 355.435,137.15 353.5,136.5C 349.622,136.976 346.288,135.976 343.5,133.5 Z"/></g>
<g><path style="opacity:1" fill="#423804" d="M 347.5,133.5 C 349.898,133.259 351.898,133.926 353.5,135.5C 351.102,135.741 349.102,135.074 347.5,133.5 Z"/></g>
<g><path style="opacity:1" fill="#624f0e" d="M 361.5,137.5 C 364.877,137.959 368.211,138.626 371.5,139.5C 371.5,139.833 371.5,140.167 371.5,140.5C 367.838,140.277 364.505,139.277 361.5,137.5 Z"/></g>
<g><path style="opacity:1" fill="#f1c520" d="M 335.5,132.5 C 338.167,132.833 340.833,133.167 343.5,133.5C 346.288,135.976 349.622,136.976 353.5,136.5C 355.85,138.238 358.183,140.071 360.5,142C 358.913,142.862 357.246,143.529 355.5,144C 359.614,144.445 363.614,143.945 367.5,142.5C 371.315,143.836 375.315,144.669 379.5,145C 354.483,145.356 329.483,144.856 304.5,143.5C 301.518,143.963 298.518,144.296 295.5,144.5C 295.5,141.5 295.5,138.5 295.5,135.5C 297.833,133.5 300.167,131.5 302.5,129.5C 304.949,128.958 307.449,128.625 310,128.5C 318.465,130.236 326.965,131.569 335.5,132.5 Z"/></g>
<g><path style="opacity:0.992" fill="#372d14" d="M 371.5,140.5 C 371.5,140.167 371.5,139.833 371.5,139.5C 372.833,139.5 374.167,139.5 375.5,139.5C 384.657,140.721 393.491,143.054 402,146.5C 402.688,147.332 402.521,147.998 401.5,148.5C 396.62,150.069 391.62,151.069 386.5,151.5C 385.833,151.5 385.167,151.5 384.5,151.5C 385.306,150.272 386.306,149.272 387.5,148.5C 398.014,147.739 398.014,146.406 387.5,144.5C 386.432,143.566 385.099,143.232 383.5,143.5C 381.898,141.926 379.898,141.259 377.5,141.5C 375.435,141.483 373.435,141.15 371.5,140.5 Z"/></g>
<g><path style="opacity:0.251" fill="#b8b6b3" d="M 377.5,131.5 C 377.123,133.258 376.456,134.925 375.5,136.5C 384.784,139.393 394.117,142.226 403.5,145C 404.833,146.333 404.833,147.667 403.5,149C 392.807,152.534 381.807,154.368 370.5,154.5C 370.203,166.789 370.537,179.123 371.5,191.5C 370.001,180.702 369.334,169.702 369.5,158.5C 369.5,156.833 369.5,155.167 369.5,153.5C 375.329,153.032 380.996,152.365 386.5,151.5C 391.62,151.069 396.62,150.069 401.5,148.5C 402.521,147.998 402.688,147.332 402,146.5C 393.491,143.054 384.657,140.721 375.5,139.5C 373.039,136.336 373.705,133.669 377.5,131.5 Z"/></g>
<g><path style="opacity:0.439" fill="#b2b2b3" d="M 87.5,137.5 C 87.7062,140.495 87.0395,143.162 85.5,145.5C 85.5651,142.572 86.2318,139.905 87.5,137.5 Z"/></g>
<g><path style="opacity:1" fill="#777567" d="M 271.5,135.5 C 269.598,140.068 266.598,143.735 262.5,146.5C 260.833,147.167 259.167,147.833 257.5,148.5C 257.833,147.833 258.167,147.167 258.5,146.5C 260.14,145.68 261.807,144.847 263.5,144C 266.067,140.997 268.734,138.164 271.5,135.5 Z"/></g>
<g><path style="opacity:1" fill="#6f570c" d="M 377.5,141.5 C 379.898,141.259 381.898,141.926 383.5,143.5C 381.102,143.741 379.102,143.074 377.5,141.5 Z"/></g>
<g><path style="opacity:1" fill="#5a594e" d="M 219.5,141.5 C 222.089,142.419 224.089,144.086 225.5,146.5C 222.911,145.581 220.911,143.914 219.5,141.5 Z"/></g>
<g><path style="opacity:1" fill="#e2bc29" d="M 353.5,136.5 C 355.435,137.15 357.435,137.483 359.5,137.5C 360.167,137.5 360.833,137.5 361.5,137.5C 364.505,139.277 367.838,140.277 371.5,140.5C 373.435,141.15 375.435,141.483 377.5,141.5C 379.102,143.074 381.102,143.741 383.5,143.5C 384.598,144.397 384.598,145.23 383.5,146C 380.236,146.939 376.903,147.439 373.5,147.5C 363.517,146.667 353.517,146.334 343.5,146.5C 334.46,146.748 325.46,146.415 316.5,145.5C 312.5,144.833 308.5,144.167 304.5,143.5C 329.483,144.856 354.483,145.356 379.5,145C 375.315,144.669 371.315,143.836 367.5,142.5C 363.614,143.945 359.614,144.445 355.5,144C 357.246,143.529 358.913,142.862 360.5,142C 358.183,140.071 355.85,138.238 353.5,136.5 Z"/></g>
<g><path style="opacity:1" fill="#b9b7a3" d="M 291.5,136.5 C 291.187,140.042 291.521,143.375 292.5,146.5C 293.674,147.514 294.34,148.847 294.5,150.5C 292.926,150.063 291.759,149.063 291,147.5C 290.19,143.642 290.357,139.976 291.5,136.5 Z"/></g>
<g><path style="opacity:1" fill="#725300" d="M 316.5,145.5 C 325.46,146.415 334.46,146.748 343.5,146.5C 350.603,148.105 357.937,148.772 365.5,148.5C 355.347,149.494 345.014,149.828 334.5,149.5C 325,149.513 315.667,148.346 306.5,146C 309.817,145.502 313.15,145.335 316.5,145.5 Z"/></g>
<g><path style="opacity:1" fill="#b4921d" d="M 383.5,143.5 C 385.099,143.232 386.432,143.566 387.5,144.5C 387.918,145.222 388.584,145.722 389.5,146C 389.167,146.333 388.833,146.667 388.5,147C 380.875,148.142 373.208,148.642 365.5,148.5C 357.937,148.772 350.603,148.105 343.5,146.5C 353.517,146.334 363.517,146.667 373.5,147.5C 376.903,147.439 380.236,146.939 383.5,146C 384.598,145.23 384.598,144.397 383.5,143.5 Z"/></g>
<g><path style="opacity:1" fill="#7f6812" d="M 387.5,144.5 C 398.014,146.406 398.014,147.739 387.5,148.5C 376.122,149.801 364.788,151.134 353.5,152.5C 336.013,153.753 318.68,153.753 301.5,152.5C 318.18,152.476 334.846,151.976 351.5,151C 345.652,150.827 339.985,150.327 334.5,149.5C 345.014,149.828 355.347,149.494 365.5,148.5C 373.208,148.642 380.875,148.142 388.5,147C 388.833,146.667 389.167,146.333 389.5,146C 388.584,145.722 387.918,145.222 387.5,144.5 Z"/></g>
<g><path style="opacity:1" fill="#a3850f" d="M 295.5,135.5 C 295.5,138.5 295.5,141.5 295.5,144.5C 298.518,144.296 301.518,143.963 304.5,143.5C 308.5,144.167 312.5,144.833 316.5,145.5C 313.15,145.335 309.817,145.502 306.5,146C 315.667,148.346 325,149.513 334.5,149.5C 339.985,150.327 345.652,150.827 351.5,151C 334.846,151.976 318.18,152.476 301.5,152.5C 300.504,152.586 299.671,152.252 299,151.5C 298.288,149.153 297.121,147.153 295.5,145.5C 294.194,142.02 294.194,138.687 295.5,135.5 Z"/></g>
<g><path style="opacity:1" fill="#544508" d="M 387.5,148.5 C 386.306,149.272 385.306,150.272 384.5,151.5C 379.167,151.5 373.833,151.5 368.5,151.5C 363.493,151.751 358.493,152.084 353.5,152.5C 364.788,151.134 376.122,149.801 387.5,148.5 Z"/></g>
<g><path style="opacity:0.078" fill="#c8c7c8" d="M 85.5,146.5 C 85.7062,149.495 85.0395,152.162 83.5,154.5C 83.5651,151.572 84.2318,148.905 85.5,146.5 Z"/></g>
<g><path style="opacity:1" fill="#dddac5" d="M 225.5,146.5 C 226.609,146.557 227.609,146.89 228.5,147.5C 231.146,149.253 234.146,150.253 237.5,150.5C 241.646,151.647 245.98,151.814 250.5,151C 251.416,150.722 252.082,150.222 252.5,149.5C 254.216,149.371 255.883,149.038 257.5,148.5C 259.167,147.833 260.833,147.167 262.5,146.5C 262.196,147.15 261.863,147.817 261.5,148.5C 253.582,152.269 245.249,153.436 236.5,152C 232.93,150.69 229.263,149.857 225.5,149.5C 225.5,148.5 225.5,147.5 225.5,146.5 Z"/></g>
<g><path style="opacity:1" fill="#979585" d="M 252.5,149.5 C 252.082,150.222 251.416,150.722 250.5,151C 245.98,151.814 241.646,151.647 237.5,150.5C 242.547,150.663 247.547,150.329 252.5,149.5 Z"/></g>
<g><path style="opacity:1" fill="#2c2c24" d="M 258.5,146.5 C 258.167,147.167 257.833,147.833 257.5,148.5C 255.883,149.038 254.216,149.371 252.5,149.5C 247.547,150.329 242.547,150.663 237.5,150.5C 234.146,150.253 231.146,149.253 228.5,147.5C 238.671,149.125 248.671,148.792 258.5,146.5 Z"/></g>
<g><path style="opacity:1" fill="#30270d" d="M 309.5,123.5 C 311.565,123.517 313.565,123.85 315.5,124.5C 315.5,124.833 315.5,125.167 315.5,125.5C 314.761,125.369 314.094,125.536 313.5,126C 314.737,126.232 315.737,126.732 316.5,127.5C 312.141,126.35 307.808,126.35 303.5,127.5C 299.833,129.167 297.167,131.833 295.5,135.5C 294.194,138.687 294.194,142.02 295.5,145.5C 297.121,147.153 298.288,149.153 299,151.5C 299.671,152.252 300.504,152.586 301.5,152.5C 318.68,153.753 336.013,153.753 353.5,152.5C 358.493,152.084 363.493,151.751 368.5,151.5C 368.5,152.5 368.5,153.5 368.5,154.5C 361.313,154.175 354.313,154.509 347.5,155.5C 344.833,155.5 342.167,155.5 339.5,155.5C 325.784,155.798 312.118,155.465 298.5,154.5C 297.5,152.833 296.167,151.5 294.5,150.5C 294.34,148.847 293.674,147.514 292.5,146.5C 292.334,142.154 292.501,137.821 293,133.5C 295.372,131.297 297.539,128.963 299.5,126.5C 302.329,124.022 305.662,123.022 309.5,123.5 Z"/></g>
<g><path style="opacity:1" fill="#7c7963" d="M 298.5,154.5 C 312.118,155.465 325.784,155.798 339.5,155.5C 339.5,155.833 339.5,156.167 339.5,156.5C 326.5,156.5 313.5,156.5 300.5,156.5C 299.5,156.167 298.833,155.5 298.5,154.5 Z"/></g>
<g><path style="opacity:1" fill="#d9d6c0" d="M 183.5,137.5 C 183.833,137.5 184.167,137.5 184.5,137.5C 183.395,161.838 183.395,186.171 184.5,210.5C 223.488,209.272 262.488,208.272 301.5,207.5C 301.5,207.833 301.5,208.167 301.5,208.5C 295.833,208.5 290.167,208.5 284.5,208.5C 268.167,209.167 251.833,209.833 235.5,210.5C 222.163,210.333 208.829,210.5 195.5,211C 191.975,211.179 188.641,211.679 185.5,212.5C 183.865,208.427 182.865,204.094 182.5,199.5C 182.344,178.822 182.677,158.156 183.5,137.5 Z"/></g>
<g><path style="opacity:1" fill="#dfdbc6" d="M 300.5,156.5 C 313.5,156.5 326.5,156.5 339.5,156.5C 348.167,156.5 356.833,156.5 365.5,156.5C 365.176,163.354 365.509,170.021 366.5,176.5C 366.833,176.5 367.167,176.5 367.5,176.5C 367.5,181.5 367.5,186.5 367.5,191.5C 367.5,194.5 367.5,197.5 367.5,200.5C 366.952,195.174 366.118,189.841 365,184.5C 364.5,175.506 364.334,166.506 364.5,157.5C 342.993,157.831 321.66,157.497 300.5,156.5 Z"/></g>
<g><path style="opacity:1" fill="#b5b29f" d="M 339.5,156.5 C 339.5,156.167 339.5,155.833 339.5,155.5C 342.167,155.5 344.833,155.5 347.5,155.5C 353.833,155.5 360.167,155.5 366.5,155.5C 366.5,162.5 366.5,169.5 366.5,176.5C 365.509,170.021 365.176,163.354 365.5,156.5C 356.833,156.5 348.167,156.5 339.5,156.5 Z"/></g>
<g><path style="opacity:0.176" fill="#bcbebf" d="M 83.5,155.5 C 83.678,159.122 83.0114,162.456 81.5,165.5C 81.5488,161.922 82.2154,158.589 83.5,155.5 Z"/></g>
<g><path style="opacity:1" fill="#7c7b6e" d="M 183.5,137.5 C 182.677,158.156 182.344,178.822 182.5,199.5C 181.505,187.678 181.172,175.678 181.5,163.5C 181.334,156.825 181.5,150.158 182,143.5C 182.191,141.292 182.691,139.292 183.5,137.5 Z"/></g>
<g><path style="opacity:1" fill="#5e5a49" d="M 368.5,151.5 C 373.833,151.5 379.167,151.5 384.5,151.5C 385.167,151.5 385.833,151.5 386.5,151.5C 380.996,152.365 375.329,153.032 369.5,153.5C 369.5,155.167 369.5,156.833 369.5,158.5C 367.547,164.074 366.88,170.074 367.5,176.5C 367.167,176.5 366.833,176.5 366.5,176.5C 366.5,169.5 366.5,162.5 366.5,155.5C 360.167,155.5 353.833,155.5 347.5,155.5C 354.313,154.509 361.313,154.175 368.5,154.5C 368.5,153.5 368.5,152.5 368.5,151.5 Z"/></g>
<g><path style="opacity:0.627" fill="#9b9a9a" d="M 80.5,171.5 C 80.6013,178.465 79.6013,185.132 77.5,191.5C 77.8729,184.608 78.8729,177.942 80.5,171.5 Z"/></g>
<g><path style="opacity:0.264" fill="#c6c6c6" d="M 77.5,191.5 C 77.5,193.5 77.5,195.5 77.5,197.5C 71.5,197.5 65.5,197.5 59.5,197.5C 56.8333,197.5 54.1667,197.5 51.5,197.5C 59.6499,196.507 67.9832,196.174 76.5,196.5C 76.2155,194.585 76.5489,192.919 77.5,191.5 Z"/></g>
<g><path style="opacity:0.208" fill="#bebbbc" d="M 371.5,191.5 C 372.216,196.064 372.883,200.731 373.5,205.5C 371.564,201.285 370.897,196.619 371.5,191.5 Z"/></g>
<g><path style="opacity:1" fill="#1f1f19" d="M 369.5,158.5 C 369.334,169.702 370.001,180.702 371.5,191.5C 370.897,196.619 371.564,201.285 373.5,205.5C 374.5,205.5 375.5,205.5 376.5,205.5C 396.21,204.895 415.877,204.895 435.5,205.5C 435.664,208.187 435.497,210.854 435,213.5C 434.802,211.618 434.302,209.952 433.5,208.5C 430.062,207.177 426.229,206.51 422,206.5C 417.985,206.501 414.151,206.835 410.5,207.5C 407.833,207.5 405.167,207.5 402.5,207.5C 382.169,207.934 361.835,208.268 341.5,208.5C 341.5,207.833 341.5,207.167 341.5,206.5C 350.173,206.666 358.84,206.5 367.5,206C 368.824,201.067 368.824,196.234 367.5,191.5C 367.5,186.5 367.5,181.5 367.5,176.5C 366.88,170.074 367.547,164.074 369.5,158.5 Z"/></g>
<g><path style="opacity:0.373" fill="#999999" d="M 51.5,197.5 C 54.1667,197.5 56.8333,197.5 59.5,197.5C 57.0521,198.473 54.3854,198.806 51.5,198.5C 45.1202,198.393 38.7869,198.893 32.5,200C 31.944,200.383 31.6107,200.883 31.5,201.5C 30.8333,202.5 30.1667,203.5 29.5,204.5C 28.9738,201.192 30.3072,199.026 33.5,198C 39.4908,197.501 45.4908,197.334 51.5,197.5 Z"/></g>
<g><path style="opacity:1" fill="#7b7e6b" d="M 40.5,201.5 C 51.988,200.505 63.6547,200.172 75.5,200.5C 75.7947,202.735 75.4614,204.735 74.5,206.5C 69.1667,206.5 63.8333,206.5 58.5,206.5C 63.6405,205.512 68.9738,205.179 74.5,205.5C 74.5,204.167 74.5,202.833 74.5,201.5C 63.1667,201.5 51.8333,201.5 40.5,201.5 Z"/></g>
<g><path style="opacity:1" fill="#b2b79a" d="M 40.5,201.5 C 51.8333,201.5 63.1667,201.5 74.5,201.5C 74.5,202.833 74.5,204.167 74.5,205.5C 68.9738,205.179 63.6405,205.512 58.5,206.5C 53.4889,206.666 48.4889,206.499 43.5,206C 42.5291,204.519 41.1958,203.685 39.5,203.5C 38.6236,203.631 37.9569,203.298 37.5,202.5C 38.325,201.614 39.325,201.281 40.5,201.5 Z"/></g>
<g><path style="opacity:0.361" fill="#afafad" d="M 435.5,205.5 C 415.877,204.895 396.21,204.895 376.5,205.5C 395.332,204.085 414.332,203.252 433.5,203C 434.756,203.417 435.423,204.25 435.5,205.5 Z"/></g>
<g><path style="opacity:1" fill="#b7b39f" d="M 367.5,191.5 C 368.824,196.234 368.824,201.067 367.5,206C 358.84,206.5 350.173,206.666 341.5,206.5C 330.5,206.5 319.5,206.5 308.5,206.5C 327.991,205.348 347.658,204.681 367.5,204.5C 367.5,203.167 367.5,201.833 367.5,200.5C 367.5,197.5 367.5,194.5 367.5,191.5 Z"/></g>
<g><path style="opacity:1" fill="#4e5142" d="M 39.5,203.5 C 41.1958,203.685 42.5291,204.519 43.5,206C 48.4889,206.499 53.4889,206.666 58.5,206.5C 63.8333,206.5 69.1667,206.5 74.5,206.5C 74.5,206.833 74.5,207.167 74.5,207.5C 63.8281,207.667 53.1615,207.5 42.5,207C 41.2899,205.961 40.2899,204.794 39.5,203.5 Z"/></g>
<g><path style="opacity:1" fill="#515346" d="M 410.5,207.5 C 414.151,206.835 417.985,206.501 422,206.5C 426.229,206.51 430.062,207.177 433.5,208.5C 433.167,208.5 432.833,208.5 432.5,208.5C 425.352,207.508 418.019,207.175 410.5,207.5 Z"/></g>
<g><path style="opacity:1" fill="#969a84" d="M 35.5,206.5 C 40.5652,208.283 42.5652,211.95 41.5,217.5C 40.8354,219.369 40.1687,221.369 39.5,223.5C 37.8273,221.914 35.8273,221.247 33.5,221.5C 32.3065,221.03 31.6399,220.03 31.5,218.5C 32.2457,214.868 32.579,211.202 32.5,207.5C 33.209,206.596 34.209,206.263 35.5,206.5 Z"/></g>
<g><path style="opacity:1" fill="#888c77" d="M 402.5,207.5 C 405.167,207.5 407.833,207.5 410.5,207.5C 418.019,207.175 425.352,207.508 432.5,208.5C 413.499,208.81 394.499,209.144 375.5,209.5C 384.5,208.833 393.5,208.167 402.5,207.5 Z"/></g>
<g><path style="opacity:1" fill="#212119" d="M 51.5,198.5 C 59.5,199.167 67.5,199.833 75.5,200.5C 63.6547,200.172 51.988,200.505 40.5,201.5C 39.325,201.281 38.325,201.614 37.5,202.5C 37.9569,203.298 38.6236,203.631 39.5,203.5C 40.2899,204.794 41.2899,205.961 42.5,207C 53.1615,207.5 63.8281,207.667 74.5,207.5C 74.5,208.167 74.5,208.833 74.5,209.5C 64.6522,209.173 54.9856,209.506 45.5,210.5C 45.492,217.588 44.992,224.588 44,231.5C 47.4839,235.831 51.6505,239.164 56.5,241.5C 55.8902,242.391 55.5569,243.391 55.5,244.5C 48.1157,240.116 42.449,234.116 38.5,226.5C 39.209,225.596 40.209,225.263 41.5,225.5C 41.5,222.833 41.5,220.167 41.5,217.5C 42.5652,211.95 40.5652,208.283 35.5,206.5C 34.0837,204.821 32.7503,203.154 31.5,201.5C 31.6107,200.883 31.944,200.383 32.5,200C 38.7869,198.893 45.1202,198.393 51.5,198.5 Z"/></g>
<g><path style="opacity:1" fill="#424436" d="M 402.5,207.5 C 393.5,208.167 384.5,208.833 375.5,209.5C 363.988,209.828 352.654,209.495 341.5,208.5C 361.835,208.268 382.169,207.934 402.5,207.5 Z"/></g>
<g><path style="opacity:1" fill="#34362e" d="M 45.5,210.5 C 54.9856,209.506 64.6522,209.173 74.5,209.5C 74.6658,214.179 74.4992,218.845 74,223.5C 73.0041,225.66 71.5041,227.327 69.5,228.5C 70.8446,226.303 72.0112,223.97 73,221.5C 73.4986,217.848 73.6653,214.182 73.5,210.5C 64.1667,210.5 54.8333,210.5 45.5,210.5 Z"/></g>
<g><path style="opacity:1" fill="#6d6b5e" d="M 284.5,208.5 C 281.324,209.093 278.157,210.093 275,211.5C 271.895,210.633 268.728,210.299 265.5,210.5C 244.325,212.172 222.991,212.838 201.5,212.5C 212.833,211.833 224.167,211.167 235.5,210.5C 251.833,209.833 268.167,209.167 284.5,208.5 Z"/></g>
<g><path style="opacity:1" fill="#c5cba9" d="M 432.5,208.5 C 432.833,208.5 433.167,208.5 433.5,208.5C 433.5,211.5 433.5,214.5 433.5,217.5C 433.968,221.131 433.301,224.465 431.5,227.5C 432.325,228.386 433.325,228.719 434.5,228.5C 434.803,233.43 434.469,238.263 433.5,243C 435.605,244.335 436.271,246.002 435.5,248C 436.191,249.067 436.691,250.234 437,251.5C 437.171,259.677 437.671,267.677 438.5,275.5C 439.254,280.463 439.587,285.463 439.5,290.5C 441.277,320.416 443.943,350.082 447.5,379.5C 449.031,386.739 449.698,394.072 449.5,401.5C 449.71,411.727 450.71,421.727 452.5,431.5C 452.179,437.026 452.512,442.36 453.5,447.5C 453.276,453.739 453.943,459.739 455.5,465.5C 455.479,472.854 455.813,480.187 456.5,487.5C 456.5,491.833 456.5,496.167 456.5,500.5C 445.491,501.112 434.491,501.945 423.5,503C 422.263,503.232 421.263,503.732 420.5,504.5C 420.5,504.833 420.5,505.167 420.5,505.5C 411.794,505.811 403.127,506.477 394.5,507.5C 386.284,507.323 378.284,507.99 370.5,509.5C 366.154,509.334 361.821,509.501 357.5,510C 355.942,510.21 354.609,510.71 353.5,511.5C 352.167,511.5 350.833,511.5 349.5,511.5C 342.595,511.207 335.928,511.874 329.5,513.5C 328.833,513.5 328.167,513.5 327.5,513.5C 322.156,513.334 316.823,513.501 311.5,514C 310.263,514.232 309.263,514.732 308.5,515.5C 302.741,515.214 297.075,515.548 291.5,516.5C 283.656,516.82 275.989,517.487 268.5,518.5C 252.322,519.487 236.322,520.82 220.5,522.5C 219.081,523.451 217.415,523.784 215.5,523.5C 208.604,523.294 201.937,523.961 195.5,525.5C 187.846,526.07 180.179,526.404 172.5,526.5C 168.894,526.789 165.394,526.456 162,525.5C 161.25,526.126 160.416,526.626 159.5,527C 153.158,527.475 146.824,527.975 140.5,528.5C 139.65,518.864 138.983,509.197 138.5,499.5C 138.478,496.41 137.812,493.743 136.5,491.5C 136.666,483.493 136.5,475.493 136,467.5C 135.802,465.618 135.302,463.952 134.5,462.5C 134.5,461.833 134.167,461.5 133.5,461.5C 133.5,460.833 133.5,460.167 133.5,459.5C 132.806,447.328 131.806,435.328 130.5,423.5C 129.233,415.362 128.566,407.029 128.5,398.5C 128.427,388.592 127.427,378.926 125.5,369.5C 125.626,356.476 125.126,343.476 124,330.5C 122.939,327.834 122.106,325.167 121.5,322.5C 121.866,313.208 120.866,304.208 118.5,295.5C 118.524,289.143 118.19,282.81 117.5,276.5C 117.741,269.27 117.075,262.27 115.5,255.5C 115.534,243.779 114.867,232.112 113.5,220.5C 128.837,220.667 144.17,220.5 159.5,220C 176.03,219.344 192.363,218.177 208.5,216.5C 221.995,215.998 235.328,215.331 248.5,214.5C 256.888,214.773 265.221,214.44 273.5,213.5C 281.174,213.666 288.841,213.5 296.5,213C 301.971,211.046 307.638,210.046 313.5,210C 334.333,210.33 354.999,210.163 375.5,209.5C 394.499,209.144 413.499,208.81 432.5,208.5 Z"/></g>
<g><path style="opacity:1" fill="#57594c" d="M 45.5,210.5 C 54.8333,210.5 64.1667,210.5 73.5,210.5C 73.6653,214.182 73.4986,217.848 73,221.5C 72.0112,223.97 70.8446,226.303 69.5,228.5C 64.1393,231.861 59.8059,236.194 56.5,241.5C 51.6505,239.164 47.4839,235.831 44,231.5C 44.992,224.588 45.492,217.588 45.5,210.5 Z"/></g>
<g><path style="opacity:1" fill="#5b5d4b" d="M 284.5,208.5 C 290.167,208.5 295.833,208.5 301.5,208.5C 304.85,208.335 308.183,208.502 311.5,209C 298.655,210.23 285.988,211.73 273.5,213.5C 265.221,214.44 256.888,214.773 248.5,214.5C 245.5,214.5 242.5,214.5 239.5,214.5C 248.995,213.465 258.662,212.632 268.5,212C 267.263,211.768 266.263,211.268 265.5,210.5C 268.728,210.299 271.895,210.633 275,211.5C 278.157,210.093 281.324,209.093 284.5,208.5 Z"/></g>
<g><path style="opacity:1" fill="#858770" d="M 308.5,206.5 C 319.5,206.5 330.5,206.5 341.5,206.5C 341.5,207.167 341.5,207.833 341.5,208.5C 352.654,209.495 363.988,209.828 375.5,209.5C 354.999,210.163 334.333,210.33 313.5,210C 307.638,210.046 301.971,211.046 296.5,213C 288.841,213.5 281.174,213.666 273.5,213.5C 285.988,211.73 298.655,210.23 311.5,209C 308.183,208.502 304.85,208.335 301.5,208.5C 301.5,208.167 301.5,207.833 301.5,207.5C 303.607,206.532 305.941,206.198 308.5,206.5 Z"/></g>
<g><path style="opacity:1" fill="#1f2019" d="M 181.5,163.5 C 181.172,175.678 181.505,187.678 182.5,199.5C 182.865,204.094 183.865,208.427 185.5,212.5C 190.833,212.5 196.167,212.5 201.5,212.5C 222.991,212.838 244.325,212.172 265.5,210.5C 266.263,211.268 267.263,211.768 268.5,212C 258.662,212.632 248.995,213.465 239.5,214.5C 217.482,214.655 195.482,215.321 173.5,216.5C 175.842,215.992 178.009,214.992 180,213.5C 180.168,196.662 180.668,179.995 181.5,163.5 Z"/></g>
<g><path style="opacity:1" fill="#aeab98" d="M 235.5,210.5 C 224.167,211.167 212.833,211.833 201.5,212.5C 196.167,212.5 190.833,212.5 185.5,212.5C 188.641,211.679 191.975,211.179 195.5,211C 208.829,210.5 222.163,210.333 235.5,210.5 Z"/></g>
<g><path style="opacity:0.122" fill="#b5b6af" d="M 29.5,204.5 C 29.7451,210.084 29.0784,215.417 27.5,220.5C 27.376,214.931 28.0427,209.598 29.5,204.5 Z"/></g>
<g><path style="opacity:1" fill="#656858" d="M 239.5,214.5 C 242.5,214.5 245.5,214.5 248.5,214.5C 235.328,215.331 221.995,215.998 208.5,216.5C 196.835,216.87 185.168,217.204 173.5,217.5C 173.5,217.167 173.5,216.833 173.5,216.5C 195.482,215.321 217.482,214.655 239.5,214.5 Z"/></g>
<g><path style="opacity:1" fill="#666757" d="M 173.5,217.5 C 157.341,218.584 141.008,219.251 124.5,219.5C 124.5,219.167 124.5,218.833 124.5,218.5C 140.82,217.693 157.153,217.36 173.5,217.5 Z"/></g>
<g><path style="opacity:1" fill="#adb097" d="M 208.5,216.5 C 192.363,218.177 176.03,219.344 159.5,220C 144.17,220.5 128.837,220.667 113.5,220.5C 116.962,219.518 120.629,219.185 124.5,219.5C 141.008,219.251 157.341,218.584 173.5,217.5C 185.168,217.204 196.835,216.87 208.5,216.5 Z"/></g>
<g><path style="opacity:1" fill="#3d3723" d="M 41.5,217.5 C 41.5,220.167 41.5,222.833 41.5,225.5C 40.209,225.263 39.209,225.596 38.5,226.5C 37.5178,225.859 36.5178,225.193 35.5,224.5C 34.4173,225.365 34.2506,226.365 35,227.5C 37.9547,232.287 41.4547,236.62 45.5,240.5C 43.6064,239.952 41.9397,238.952 40.5,237.5C 39.8281,238.949 39.1614,240.282 38.5,241.5C 38.0562,236.941 36.2229,232.941 33,229.5C 32.2782,226.739 32.4448,224.073 33.5,221.5C 35.8273,221.247 37.8273,221.914 39.5,223.5C 40.1687,221.369 40.8354,219.369 41.5,217.5 Z"/></g>
<g><path style="opacity:0.898" fill="#4b4d41" d="M 435.5,205.5 C 436.338,205.842 436.672,206.508 436.5,207.5C 437.007,221.552 437.84,235.552 439,249.5C 437.25,246.754 436.25,243.754 436,240.5C 435.667,234.167 435.333,227.833 435,221.5C 434.79,219.942 434.29,218.609 433.5,217.5C 433.5,214.5 433.5,211.5 433.5,208.5C 434.302,209.952 434.802,211.618 435,213.5C 435.497,210.854 435.664,208.187 435.5,205.5 Z"/></g>
<g><path style="opacity:0.643" fill="#a6a7a3" d="M 27.5,222.5 C 27.0528,233.082 25.7195,243.416 23.5,253.5C 24.2507,242.954 25.584,232.62 27.5,222.5 Z"/></g>
<g><path style="opacity:1" fill="#7d806f" d="M 32.5,207.5 C 32.579,211.202 32.2457,214.868 31.5,218.5C 31.6399,220.03 32.3065,221.03 33.5,221.5C 32.4448,224.073 32.2782,226.739 33,229.5C 36.2229,232.941 38.0562,236.941 38.5,241.5C 38.81,244.713 38.4767,247.713 37.5,250.5C 36.3033,256.137 35.3033,261.804 34.5,267.5C 34.3542,258.446 35.3542,249.613 37.5,241C 37.9512,238.121 36.7845,236.288 34,235.5C 32.4379,233.043 31.4379,230.376 31,227.5C 30.6174,228.056 30.1174,228.389 29.5,228.5C 29.9668,221.29 30.9668,214.29 32.5,207.5 Z"/></g>
<g><path style="opacity:1" fill="#363122" d="M 99.5,226.5 C 96.905,230.411 96.905,234.411 99.5,238.5C 101.747,237.626 104.08,237.292 106.5,237.5C 107.135,242.547 105.135,246.214 100.5,248.5C 99.5159,251.428 99.1826,254.428 99.5,257.5C 98.5233,254.713 98.19,251.713 98.5,248.5C 97.5,248.5 96.5,248.5 95.5,248.5C 97.513,246.503 99.8463,244.836 102.5,243.5C 103.386,242.675 103.719,241.675 103.5,240.5C 101.486,240.392 99.8195,241.058 98.5,242.5C 96.683,237.663 96.183,232.663 97,227.5C 97.6708,226.748 98.5041,226.414 99.5,226.5 Z"/></g>
<g><path style="opacity:1" fill="#8d755b" d="M 38.5,226.5 C 42.449,234.116 48.1157,240.116 55.5,244.5C 64.6779,250.655 74.3446,251.989 84.5,248.5C 85.8734,248.657 87.2068,248.49 88.5,248C 91.7405,245.909 95.0738,244.076 98.5,242.5C 99.8195,241.058 101.486,240.392 103.5,240.5C 103.719,241.675 103.386,242.675 102.5,243.5C 99.8463,244.836 97.513,246.503 95.5,248.5C 83.8693,254.374 71.8693,255.04 59.5,250.5C 54.2095,248.175 49.5429,244.841 45.5,240.5C 41.4547,236.62 37.9547,232.287 35,227.5C 34.2506,226.365 34.4173,225.365 35.5,224.5C 36.5178,225.193 37.5178,225.859 38.5,226.5 Z"/></g>
<g><path style="opacity:1" fill="#878a77" d="M 113.5,220.5 C 114.867,232.112 115.534,243.779 115.5,255.5C 114.302,245.838 113.302,236.005 112.5,226C 112.506,223.967 112.839,222.134 113.5,220.5 Z"/></g>
<g><path style="opacity:1" fill="#211f17" d="M 45.5,240.5 C 49.5429,244.841 54.2095,248.175 59.5,250.5C 56.6062,250.042 54.1062,250.709 52,252.5C 51.9252,250.065 51.0919,249.398 49.5,250.5C 48.412,246.72 46.0787,243.72 42.5,241.5C 40.6499,247.718 40.1499,254.051 41,260.5C 41.7083,259.619 42.5416,258.953 43.5,258.5C 42.7369,261.015 41.2369,263.015 39,264.5C 38.4077,261.306 38.5743,258.139 39.5,255C 39.3333,254.167 39.1667,253.333 39,252.5C 38.7679,253.737 38.2679,254.737 37.5,255.5C 37.5,253.833 37.5,252.167 37.5,250.5C 38.4767,247.713 38.81,244.713 38.5,241.5C 39.1614,240.282 39.8281,238.949 40.5,237.5C 41.9397,238.952 43.6064,239.952 45.5,240.5 Z"/></g>
<g><path style="opacity:1" fill="#515249" d="M 49.5,250.5 C 47.5244,253.148 45.5244,255.815 43.5,258.5C 42.5416,258.953 41.7083,259.619 41,260.5C 40.1499,254.051 40.6499,247.718 42.5,241.5C 46.0787,243.72 48.412,246.72 49.5,250.5 Z"/></g>
<g><path style="opacity:1" fill="#2f281a" d="M 55.5,244.5 C 59.1055,244.799 62.4388,245.965 65.5,248C 71.8246,248.5 78.1579,248.666 84.5,248.5C 74.3446,251.989 64.6779,250.655 55.5,244.5 Z"/></g>
<g><path style="opacity:1" fill="#878a77" d="M 29.5,229.5 C 28.9992,238.17 28.8325,246.837 29,255.5C 29.4482,257.224 30.2815,257.891 31.5,257.5C 30.4783,258.354 29.6449,259.354 29,260.5C 28.6667,259.167 28.3333,257.833 28,256.5C 25.1877,265.356 24.3544,274.356 25.5,283.5C 26.1818,282.757 26.8485,282.091 27.5,281.5C 27.2964,283.685 26.6298,285.685 25.5,287.5C 22.9227,290.101 21.9227,289.268 22.5,285C 25.0295,266.382 27.3628,247.882 29.5,229.5 Z"/></g>
<g><path style="opacity:1" fill="#142535" d="M 111.5,439.5 C 111.87,449.699 112.537,459.866 113.5,470C 113.355,470.772 113.022,471.439 112.5,472C 108.184,470.195 103.517,469.195 98.5,469C 95.2143,466.328 91.7143,463.162 88,459.5C 86.8529,456.382 85.5196,453.382 84,450.5C 76.8201,417.652 74.6534,384.486 77.5,351C 77.1768,345.81 76.1768,340.977 74.5,336.5C 73.791,335.596 72.791,335.263 71.5,335.5C 72.8321,334.17 73.6655,332.503 74,330.5C 80.7961,323.58 87.1294,316.247 93,308.5C 94.3651,305.278 95.5318,301.944 96.5,298.5C 96.1667,297.833 95.8333,297.167 95.5,296.5C 88.7991,308.892 80.4658,320.225 70.5,330.5C 69.675,331.386 68.675,331.719 67.5,331.5C 67.4326,332.959 67.7659,334.292 68.5,335.5C 62.7156,336.421 58.3823,339.587 55.5,345C 48.9194,349.638 42.2527,354.305 35.5,359C 28.5148,363.494 20.8481,365.661 12.5,365.5C 7.95696,357.818 7.2903,349.651 10.5,341C 10.0062,339.538 9.67285,338.038 9.5,336.5C 12.5236,330.113 15.0236,323.779 17,317.5C 17.2805,313.527 18.1138,309.694 19.5,306C 19.472,304.93 19.1386,304.097 18.5,303.5C 18.5,300.833 18.5,298.167 18.5,295.5C 18.8333,295.5 19.1667,295.5 19.5,295.5C 19.3367,297.857 19.5034,300.19 20,302.5C 24.0307,297.366 27.0307,291.7 29,285.5C 35.8075,274.706 42.9742,264.206 50.5,254C 52.2893,253.086 54.1227,252.253 56,251.5C 68.925,256.097 82.0916,256.764 95.5,253.5C 101.251,315.43 106.584,377.43 111.5,439.5 Z"/></g>
<g><path style="opacity:0.995" fill="#b1b4a4" d="M 436.5,207.5 C 438.943,226.621 440.61,245.954 441.5,265.5C 440.698,264.048 440.198,262.382 440,260.5C 438.675,265.401 438.175,270.401 438.5,275.5C 437.671,267.677 437.171,259.677 437,251.5C 436.691,250.234 436.191,249.067 435.5,248C 436.271,246.002 435.605,244.335 433.5,243C 434.469,238.263 434.803,233.43 434.5,228.5C 433.325,228.719 432.325,228.386 431.5,227.5C 433.301,224.465 433.968,221.131 433.5,217.5C 434.29,218.609 434.79,219.942 435,221.5C 435.333,227.833 435.667,234.167 436,240.5C 436.25,243.754 437.25,246.754 439,249.5C 437.84,235.552 437.007,221.552 436.5,207.5 Z"/></g>
<g><path style="opacity:0.639" fill="#a5a5a2" d="M 23.5,256.5 C 23.0527,267.083 21.7193,277.417 19.5,287.5C 20.2507,276.954 21.584,266.62 23.5,256.5 Z"/></g>
<g><path style="opacity:1" fill="#404236" d="M 37.5,250.5 C 37.5,252.167 37.5,253.833 37.5,255.5C 37.1655,260.177 36.6655,264.844 36,269.5C 35.8784,271.437 35.045,272.77 33.5,273.5C 34.1495,271.565 34.4828,269.565 34.5,267.5C 35.3033,261.804 36.3033,256.137 37.5,250.5 Z"/></g>
<g><path style="opacity:1" fill="#9ba086" d="M 112.5,262.5 C 112.5,265.5 112.5,268.5 112.5,271.5C 112.666,276.844 112.499,282.177 112,287.5C 111.333,288.833 110.667,288.833 110,287.5C 109.774,290.095 109.274,292.595 108.5,295C 109.61,297.737 109.777,300.571 109,303.5C 106.948,299.581 105.448,295.414 104.5,291C 104.61,288.745 105.61,287.078 107.5,286C 105.833,283.845 104.833,281.345 104.5,278.5C 104.833,277.833 105.167,277.167 105.5,276.5C 102.653,268.42 100.986,260.087 100.5,251.5C 103.329,251.675 104.996,250.342 105.5,247.5C 106.192,248.025 106.692,248.692 107,249.5C 107.308,248.692 107.808,248.025 108.5,247.5C 110.559,252.423 111.892,257.423 112.5,262.5 Z"/></g>
<g><path style="opacity:1" fill="#7b7e6c" d="M 115.5,255.5 C 117.075,262.27 117.741,269.27 117.5,276.5C 116.245,269.7 115.578,262.7 115.5,255.5 Z"/></g>
<g><path style="opacity:1" fill="#9b9f87" d="M 34.5,267.5 C 34.4828,269.565 34.1495,271.565 33.5,273.5C 31.5,276.167 29.5,278.833 27.5,281.5C 26.8485,282.091 26.1818,282.757 25.5,283.5C 24.3544,274.356 25.1877,265.356 28,256.5C 28.3333,257.833 28.6667,259.167 29,260.5C 29.6449,259.354 30.4783,258.354 31.5,257.5C 30.2815,257.891 29.4482,257.224 29,255.5C 28.8325,246.837 28.9992,238.17 29.5,229.5C 29.5,229.167 29.5,228.833 29.5,228.5C 30.1174,228.389 30.6174,228.056 31,227.5C 31.4379,230.376 32.4379,233.043 34,235.5C 36.7845,236.288 37.9512,238.121 37.5,241C 35.3542,249.613 34.3542,258.446 34.5,267.5 Z"/></g>
<g><path style="opacity:0.92" fill="#696b5d" d="M 441.5,265.5 C 442.423,269.064 442.756,272.731 442.5,276.5C 441.2,278.223 440.533,280.39 440.5,283C 441.105,288.821 441.438,294.654 441.5,300.5C 440.833,297.167 440.167,293.833 439.5,290.5C 439.587,285.463 439.254,280.463 438.5,275.5C 438.175,270.401 438.675,265.401 440,260.5C 440.198,262.382 440.698,264.048 441.5,265.5 Z"/></g>
<g><path style="opacity:0.863" fill="#47483e" d="M 31.5,201.5 C 32.7503,203.154 34.0837,204.821 35.5,206.5C 34.209,206.263 33.209,206.596 32.5,207.5C 30.9668,214.29 29.9668,221.29 29.5,228.5C 29.5,228.833 29.5,229.167 29.5,229.5C 27.3628,247.882 25.0295,266.382 22.5,285C 21.9227,289.268 22.9227,290.101 25.5,287.5C 23.8218,290.497 21.8218,293.164 19.5,295.5C 19.1667,295.5 18.8333,295.5 18.5,295.5C 18.4013,292.763 18.7347,290.096 19.5,287.5C 21.7193,277.417 23.0527,267.083 23.5,256.5C 23.5,255.5 23.5,254.5 23.5,253.5C 25.7195,243.416 27.0528,233.082 27.5,222.5C 27.5,221.833 27.5,221.167 27.5,220.5C 29.0784,215.417 29.7451,210.084 29.5,204.5C 30.1667,203.5 30.8333,202.5 31.5,201.5 Z"/></g>
<g><path style="opacity:1" fill="#23251b" d="M 124.5,218.5 C 124.5,218.833 124.5,219.167 124.5,219.5C 120.629,219.185 116.962,219.518 113.5,220.5C 112.839,222.134 112.506,223.967 112.5,226C 113.302,236.005 114.302,245.838 115.5,255.5C 115.578,262.7 116.245,269.7 117.5,276.5C 118.19,282.81 118.524,289.143 118.5,295.5C 118.868,304.709 119.868,313.709 121.5,322.5C 122.487,338.347 123.82,354.014 125.5,369.5C 125.857,379.375 126.857,389.041 128.5,398.5C 128.566,407.029 129.233,415.362 130.5,423.5C 129.984,435.779 130.984,447.779 133.5,459.5C 133.5,460.167 133.5,460.833 133.5,461.5C 133.666,467.176 133.499,472.843 133,478.5C 132.79,476.942 132.29,475.609 131.5,474.5C 130.45,463.528 129.617,452.528 129,441.5C 128.477,436.638 127.644,431.972 126.5,427.5C 125.847,413.995 124.847,400.661 123.5,387.5C 123.429,379.635 122.762,371.969 121.5,364.5C 121.768,362.901 121.434,361.568 120.5,360.5C 119.286,339.431 117.619,318.431 115.5,297.5C 115.268,288.983 114.601,280.65 113.5,272.5C 113.5,271.833 113.167,271.5 112.5,271.5C 112.5,268.5 112.5,265.5 112.5,262.5C 111.293,249.517 110.293,236.517 109.5,223.5C 108.167,223.5 106.833,223.5 105.5,223.5C 107.827,222.141 110.16,220.641 112.5,219C 116.486,218.501 120.486,218.334 124.5,218.5 Z"/></g>
<g><path style="opacity:1" fill="#0f1312" d="M 95.5,248.5 C 96.5,248.5 97.5,248.5 98.5,248.5C 98.19,251.713 98.5233,254.713 99.5,257.5C 101.228,269.754 102.228,282.088 102.5,294.5C 102.156,300.098 102.822,305.432 104.5,310.5C 104.851,321.04 105.851,331.373 107.5,341.5C 108.035,353.021 109.035,364.354 110.5,375.5C 110.5,378.5 110.5,381.5 110.5,384.5C 110.857,394.006 111.524,403.34 112.5,412.5C 113.97,420.31 114.97,428.31 115.5,436.5C 115.954,443.159 116.287,449.826 116.5,456.5C 117.238,464.159 117.404,471.826 117,479.5C 116.329,478.748 115.496,478.414 114.5,478.5C 112.5,478.167 110.5,477.833 108.5,477.5C 106.664,475.412 104.331,474.079 101.5,473.5C 101.047,472.542 100.381,471.708 99.5,471C 99.8333,470.833 100.167,470.667 100.5,470.5C 104.935,472.777 109.602,474.443 114.5,475.5C 115.016,463.225 114.016,451.225 111.5,439.5C 106.584,377.43 101.251,315.43 95.5,253.5C 82.0916,256.764 68.925,256.097 56,251.5C 54.1227,252.253 52.2893,253.086 50.5,254C 42.9742,264.206 35.8075,274.706 29,285.5C 27.0307,291.7 24.0307,297.366 20,302.5C 19.5034,300.19 19.3367,297.857 19.5,295.5C 21.8218,293.164 23.8218,290.497 25.5,287.5C 26.6298,285.685 27.2964,283.685 27.5,281.5C 29.5,278.833 31.5,276.167 33.5,273.5C 35.045,272.77 35.8784,271.437 36,269.5C 36.6655,264.844 37.1655,260.177 37.5,255.5C 38.2679,254.737 38.7679,253.737 39,252.5C 39.1667,253.333 39.3333,254.167 39.5,255C 38.5743,258.139 38.4077,261.306 39,264.5C 41.2369,263.015 42.7369,261.015 43.5,258.5C 45.5244,255.815 47.5244,253.148 49.5,250.5C 51.0919,249.398 51.9252,250.065 52,252.5C 54.1062,250.709 56.6062,250.042 59.5,250.5C 71.8693,255.04 83.8693,254.374 95.5,248.5 Z"/></g>
<g><path style="opacity:1" fill="#6c6f5c" d="M 113.5,272.5 C 114.601,280.65 115.268,288.983 115.5,297.5C 114.732,296.737 114.232,295.737 114,294.5C 113.5,287.174 113.334,279.841 113.5,272.5 Z"/></g>
<g><path style="opacity:1" fill="#babea6" d="M 403.5,314.5 C 398.85,325.532 399.85,336.032 406.5,346C 414.884,351.611 421.718,350.111 427,341.5C 430.163,332.89 430.329,324.223 427.5,315.5C 428.496,315.414 429.329,315.748 430,316.5C 430.667,324.167 430.667,331.833 430,339.5C 428.745,342.928 427.245,346.262 425.5,349.5C 424.252,350.04 423.085,350.707 422,351.5C 419.134,351.189 415.967,351.189 412.5,351.5C 410.833,350.833 409.167,350.167 407.5,349.5C 405.896,349.939 404.396,350.606 403,351.5C 402.05,350.978 401.216,350.311 400.5,349.5C 395.093,352.784 389.759,353.117 384.5,350.5C 390.192,352.308 395.358,351.308 400,347.5C 400.743,345.559 400.576,343.726 399.5,342C 396.5,341.667 393.5,341.333 390.5,341C 389.874,340.25 389.374,339.416 389,338.5C 388.18,331.986 388.347,325.653 389.5,319.5C 389.334,324.511 389.501,329.511 390,334.5C 392.006,339.719 395.506,341.219 400.5,339C 399.52,331.921 399.187,324.755 399.5,317.5C 398.209,317.737 397.209,317.404 396.5,316.5C 398.377,315.341 398.877,313.674 398,311.5C 394.942,310.237 391.775,309.237 388.5,308.5C 390.199,304.222 389.533,300.389 386.5,297C 382.412,296.396 379.912,298.23 379,302.5C 378.503,305.146 378.336,307.813 378.5,310.5C 375.231,310.884 372.397,312.218 370,314.5C 369.36,316.265 369.527,317.932 370.5,319.5C 369.596,320.209 369.263,321.209 369.5,322.5C 368.759,318.828 367.593,315.161 366,311.5C 363.837,310.232 361.67,310.232 359.5,311.5C 359.552,309.097 359.219,306.764 358.5,304.5C 362.013,306.131 365.013,305.464 367.5,302.5C 367.174,304.661 366.174,306.494 364.5,308C 366.57,308.948 368.07,310.448 369,312.5C 370.887,310.114 373.387,308.947 376.5,309C 376.336,302.831 378.503,297.664 383,293.5C 389.572,295.293 392.072,299.627 390.5,306.5C 396.302,306.209 399.302,308.876 399.5,314.5C 400.833,314.5 402.167,314.5 403.5,314.5 Z"/></g>
<g><path style="opacity:1" fill="#050604" d="M 342.5,295.5 C 347.727,294.237 350.56,296.237 351,301.5C 351.872,317.164 352.205,332.83 352,348.5C 351.326,349.578 350.326,350.245 349,350.5C 346.825,350.166 344.992,349.166 343.5,347.5C 335.247,355.083 328.747,353.749 324,343.5C 320.716,334.819 320.716,326.152 324,317.5C 328.679,311.665 334.012,310.999 340,315.5C 340.333,309.833 340.667,304.167 341,298.5C 341.513,297.473 342.013,296.473 342.5,295.5 Z"/></g>
<g><path style="opacity:1" fill="#050604" d="M 396.5,316.5 C 394.145,317.659 391.812,318.659 389.5,319.5C 388.347,325.653 388.18,331.986 389,338.5C 389.374,339.416 389.874,340.25 390.5,341C 393.5,341.333 396.5,341.667 399.5,342C 400.576,343.726 400.743,345.559 400,347.5C 395.358,351.308 390.192,352.308 384.5,350.5C 381.888,349.723 380.055,348.056 379,345.5C 377.957,342.243 377.457,338.91 377.5,335.5C 377.5,330.167 377.5,324.833 377.5,319.5C 375.5,319.5 373.5,319.5 371.5,319.5C 371.167,319.5 370.833,319.5 370.5,319.5C 369.527,317.932 369.36,316.265 370,314.5C 372.397,312.218 375.231,310.884 378.5,310.5C 378.336,307.813 378.503,305.146 379,302.5C 379.912,298.23 382.412,296.396 386.5,297C 389.533,300.389 390.199,304.222 388.5,308.5C 391.775,309.237 394.942,310.237 398,311.5C 398.877,313.674 398.377,315.341 396.5,316.5 Z"/></g>
<g><path style="opacity:1" fill="#10120c" d="M 367.5,302.5 C 365.013,305.464 362.013,306.131 358.5,304.5C 358.504,299.011 361.171,297.178 366.5,299C 367.337,300.011 367.67,301.178 367.5,302.5 Z"/></g>
<g><path style="opacity:1" fill="#929580" d="M 105.5,223.5 C 106.833,223.5 108.167,223.5 109.5,223.5C 110.293,236.517 111.293,249.517 112.5,262.5C 111.892,257.423 110.559,252.423 108.5,247.5C 107.808,248.025 107.308,248.692 107,249.5C 106.692,248.692 106.192,248.025 105.5,247.5C 104.996,250.342 103.329,251.675 100.5,251.5C 100.986,260.087 102.653,268.42 105.5,276.5C 105.167,277.167 104.833,277.833 104.5,278.5C 104.833,281.345 105.833,283.845 107.5,286C 105.61,287.078 104.61,288.745 104.5,291C 105.448,295.414 106.948,299.581 109,303.5C 109.777,300.571 109.61,297.737 108.5,295C 109.274,292.595 109.774,290.095 110,287.5C 110.667,288.833 111.333,288.833 112,287.5C 112.499,282.177 112.666,276.844 112.5,271.5C 113.167,271.5 113.5,271.833 113.5,272.5C 113.334,279.841 113.5,287.174 114,294.5C 114.232,295.737 114.732,296.737 115.5,297.5C 117.619,318.431 119.286,339.431 120.5,360.5C 119.681,357.695 119.181,354.695 119,351.5C 117.853,352.458 116.853,352.125 116,350.5C 115.377,346.195 115.877,342.028 117.5,338C 116.43,326.158 115.264,314.325 114,302.5C 113.057,309.154 111.224,314.82 108.5,319.5C 109.282,325.349 109.282,331.349 108.5,337.5C 109.42,340.434 110.087,343.434 110.5,346.5C 110.283,356.111 110.283,365.777 110.5,375.5C 109.035,364.354 108.035,353.021 107.5,341.5C 107.666,334.492 107.5,327.492 107,320.5C 106.811,316.233 105.977,312.233 104.5,308.5C 104.468,303.609 103.801,298.943 102.5,294.5C 102.228,282.088 101.228,269.754 99.5,257.5C 99.1826,254.428 99.5159,251.428 100.5,248.5C 105.135,246.214 107.135,242.547 106.5,237.5C 104.08,237.292 101.747,237.626 99.5,238.5C 96.905,234.411 96.905,230.411 99.5,226.5C 101.033,224.755 103.033,223.755 105.5,223.5 Z"/></g>
<g><path style="opacity:0.663" fill="#8b8c8f" d="M 18.5,295.5 C 18.5,298.167 18.5,300.833 18.5,303.5C 17.675,305.81 16.3417,307.81 14.5,309.5C 16.4752,304.902 17.8086,300.236 18.5,295.5 Z"/></g>
<g><path style="opacity:1" fill="#060705" d="M 427.5,315.5 C 430.329,324.223 430.163,332.89 427,341.5C 421.718,350.111 414.884,351.611 406.5,346C 399.85,336.032 398.85,325.532 403.5,314.5C 412.021,303.59 420.021,303.923 427.5,315.5 Z"/></g>
<g><path style="opacity:1" fill="#040503" d="M 185.5,312.5 C 189.971,325.081 191.637,338.081 190.5,351.5C 190.909,355.62 189.576,358.954 186.5,361.5C 185.522,361.023 184.689,360.357 184,359.5C 183.295,356.524 182.129,353.858 180.5,351.5C 179.787,344.434 178.621,337.434 177,330.5C 175.749,337.501 174.416,344.501 173,351.5C 169.823,361.761 165.99,362.094 161.5,352.5C 159.774,346.82 157.94,341.154 156,335.5C 155.849,343.613 154.849,351.613 153,359.5C 150.334,363.522 148.001,363.189 146,358.5C 141.03,343.349 141.363,328.349 147,313.5C 151.861,307.875 155.861,308.541 159,315.5C 161.333,320.167 163.667,324.833 166,329.5C 167.8,321.746 171.3,314.913 176.5,309C 180.41,307.959 183.41,309.125 185.5,312.5 Z"/></g>
<g><path style="opacity:1" fill="#434539" d="M 102.5,294.5 C 103.801,298.943 104.468,303.609 104.5,308.5C 104.5,309.167 104.5,309.833 104.5,310.5C 102.822,305.432 102.156,300.098 102.5,294.5 Z"/></g>
<g><path style="opacity:1" fill="#080806" d="M 369.5,322.5 C 369.666,329.508 369.5,336.508 369,343.5C 368.484,346.034 367.317,348.2 365.5,350C 363.633,350.711 362.133,350.211 361,348.5C 357.12,336.277 356.62,323.943 359.5,311.5C 361.67,310.232 363.837,310.232 366,311.5C 367.593,315.161 368.759,318.828 369.5,322.5 Z"/></g>
<g><path style="opacity:0.565" fill="#929699" d="M 14.5,309.5 C 14.2766,313.162 13.2766,316.495 11.5,319.5C 11.7234,315.838 12.7234,312.505 14.5,309.5 Z"/></g>
<g><path style="opacity:1" fill="#7b7d6c" d="M 104.5,308.5 C 105.977,312.233 106.811,316.233 107,320.5C 107.5,327.492 107.666,334.492 107.5,341.5C 105.851,331.373 104.851,321.04 104.5,310.5C 104.5,309.833 104.5,309.167 104.5,308.5 Z"/></g>
<g><path style="opacity:1" fill="#060705" d="M 276.5,313.5 C 283.652,318.169 285.319,324.336 281.5,332C 275.666,332.996 273.333,330.496 274.5,324.5C 271.405,324.626 269.572,326.293 269,329.5C 267.079,334.484 267.079,339.484 269,344.5C 269.739,345.574 270.739,346.241 272,346.5C 274.112,345.392 275.946,343.892 277.5,342C 282.498,340.67 284.664,342.504 284,347.5C 279.848,355.99 273.348,358.49 264.5,355C 260.354,351.073 258.021,346.239 257.5,340.5C 255.837,329.34 259.503,320.507 268.5,314C 271.146,313.503 273.813,313.336 276.5,313.5 Z"/></g>
<g><path style="opacity:1" fill="#060705" d="M 297.5,312.5 C 303.816,311.576 308.983,313.576 313,318.5C 318.68,329.975 319.847,341.808 316.5,354C 311.957,355.615 309.124,354.115 308,349.5C 303.827,353.191 298.993,354.358 293.5,353C 287.458,349.252 285.958,344.085 289,337.5C 293.428,332.536 298.928,329.536 305.5,328.5C 306.08,324.824 304.58,322.824 301,322.5C 298.181,322.993 295.681,324.16 293.5,326C 287.394,326.718 285.894,324.218 289,318.5C 291.637,316.109 294.47,314.109 297.5,312.5 Z"/></g>
<g><path style="opacity:1" fill="#33455c" d="M 71.5,335.5 C 71.1667,335.5 70.8333,335.5 70.5,335.5C 69.8333,335.5 69.1667,335.5 68.5,335.5C 67.7659,334.292 67.4326,332.959 67.5,331.5C 68.675,331.719 69.675,331.386 70.5,330.5C 80.4658,320.225 88.7991,308.892 95.5,296.5C 95.8333,297.167 96.1667,297.833 96.5,298.5C 95.5318,301.944 94.3651,305.278 93,308.5C 87.1294,316.247 80.7961,323.58 74,330.5C 73.6655,332.503 72.8321,334.17 71.5,335.5 Z"/></g>
<g><path style="opacity:1" fill="#6f7162" d="M 118.5,295.5 C 120.866,304.208 121.866,313.208 121.5,322.5C 119.868,313.709 118.868,304.709 118.5,295.5 Z"/></g>
<g><path style="opacity:1" fill="#bdc2a6" d="M 185.5,312.5 C 187.512,314.133 189.179,316.133 190.5,318.5C 191.167,317.5 191.833,316.5 192.5,315.5C 193.611,316.611 194.945,317.278 196.5,317.5C 199.107,316.863 201.44,315.696 203.5,314C 208.001,312.875 212.334,312.875 216.5,314C 220.098,317.347 222.765,320.847 224.5,324.5C 225.809,321.766 226.809,319.099 227.5,316.5C 229.707,315.365 232.04,314.699 234.5,314.5C 234.5,315.833 234.5,317.167 234.5,318.5C 231.675,318.081 229.509,319.081 228,321.5C 227.738,330.168 227.904,338.834 228.5,347.5C 227.883,347.389 227.383,347.056 227,346.5C 226.566,349.502 225.399,352.169 223.5,354.5C 215.313,362.037 206.98,362.204 198.5,355C 199.056,354.617 199.389,354.117 199.5,353.5C 211.071,361.479 219.738,358.979 225.5,346C 225.667,343.5 224.5,342.333 222,342.5C 218.394,343.938 214.894,345.605 211.5,347.5C 209.143,347.308 207.476,346.142 206.5,344C 218.852,341.035 223.685,333.535 221,321.5C 216.86,316.789 211.694,315.289 205.5,317C 199.652,320.515 196.152,325.681 195,332.5C 193.44,339.92 194.94,346.587 199.5,352.5C 198.417,352.461 197.417,352.127 196.5,351.5C 195.777,348.93 194.61,346.597 193,344.5C 192.302,347.004 191.469,349.337 190.5,351.5C 191.637,338.081 189.971,325.081 185.5,312.5 Z"/></g>
<g><path style="opacity:1" fill="#070805" d="M 199.5,353.5 C 199.5,353.167 199.5,352.833 199.5,352.5C 194.94,346.587 193.44,339.92 195,332.5C 196.152,325.681 199.652,320.515 205.5,317C 211.694,315.289 216.86,316.789 221,321.5C 223.685,333.535 218.852,341.035 206.5,344C 207.476,346.142 209.143,347.308 211.5,347.5C 214.894,345.605 218.394,343.938 222,342.5C 224.5,342.333 225.667,343.5 225.5,346C 219.738,358.979 211.071,361.479 199.5,353.5 Z"/></g>
<g><path style="opacity:1" fill="#c4c9a9" d="M 396.5,316.5 C 397.209,317.404 398.209,317.737 399.5,317.5C 399.187,324.755 399.52,331.921 400.5,339C 395.506,341.219 392.006,339.719 390,334.5C 389.501,329.511 389.334,324.511 389.5,319.5C 391.812,318.659 394.145,317.659 396.5,316.5 Z"/></g>
<g><path style="opacity:1" fill="#040504" d="M 234.5,318.5 C 236.41,319.975 237.576,321.975 238,324.5C 240.91,319.137 245.41,317.137 251.5,318.5C 255.6,320.031 257.1,323.031 256,327.5C 254.874,328.944 253.374,329.61 251.5,329.5C 247.755,327.522 244.755,328.188 242.5,331.5C 241.21,332.058 240.377,333.058 240,334.5C 239.892,341.911 239.225,349.245 238,356.5C 236.534,358.325 234.701,358.825 232.5,358C 230.644,354.585 229.311,351.085 228.5,347.5C 227.904,338.834 227.738,330.168 228,321.5C 229.509,319.081 231.675,318.081 234.5,318.5 Z"/></g>
<g><path style="opacity:1" fill="#bec3a6" d="M 413.5,317.5 C 416.47,318.308 418.303,320.308 419,323.5C 419.667,327.5 419.667,331.5 419,335.5C 418.729,339.13 417.062,340.13 414,338.5C 410.931,331.485 410.764,324.485 413.5,317.5 Z"/></g>
<g><path style="opacity:0.698" fill="#94989e" d="M 11.5,319.5 C 11.8799,321.698 11.2132,323.365 9.5,324.5C 9.40206,322.447 10.0687,320.78 11.5,319.5 Z"/></g>
<g><path style="opacity:1" fill="#c1c5a8" d="M 332.5,324.5 C 336.683,323.846 339.516,325.512 341,329.5C 342.825,335.078 341.158,339.078 336,341.5C 334.013,340.846 332.68,339.513 332,337.5C 331.232,333.08 331.398,328.747 332.5,324.5 Z"/></g>
<g><path style="opacity:0.702" fill="#93969b" d="M 9.5,324.5 C 8.61586,329.054 7.28252,333.387 5.5,337.5C 5.76887,332.736 7.1022,328.403 9.5,324.5 Z"/></g>
<g><path style="opacity:1" fill="#71745e" d="M 371.5,319.5 C 373.5,319.5 375.5,319.5 377.5,319.5C 377.5,324.833 377.5,330.167 377.5,335.5C 376.513,330.695 376.179,325.695 376.5,320.5C 374.585,320.784 372.919,320.451 371.5,319.5 Z"/></g>
<g><path style="opacity:1" fill="#b2b6a0" d="M 209.5,325.5 C 213.071,325.408 214.238,327.074 213,330.5C 211.005,332.747 208.505,333.747 205.5,333.5C 205.776,330.281 207.109,327.615 209.5,325.5 Z"/></g>
<g><path style="opacity:1" fill="#b5b9a1" d="M 276.5,313.5 C 273.813,313.336 271.146,313.503 268.5,314C 259.503,320.507 255.837,329.34 257.5,340.5C 256.521,337.375 256.187,334.042 256.5,330.5C 254.097,330.393 252.264,331.393 251,333.5C 249.488,332.743 248.154,331.743 247,330.5C 245.644,331.38 244.144,331.714 242.5,331.5C 244.755,328.188 247.755,327.522 251.5,329.5C 253.374,329.61 254.874,328.944 256,327.5C 257.1,323.031 255.6,320.031 251.5,318.5C 254.044,318.896 256.211,318.229 258,316.5C 258.414,316.957 258.914,317.291 259.5,317.5C 263.491,314.608 267.824,312.274 272.5,310.5C 273.901,311.521 275.235,312.521 276.5,313.5 Z"/></g>
<g><path style="opacity:1" fill="#94987f" d="M 121.5,322.5 C 122.106,325.167 122.939,327.834 124,330.5C 125.126,343.476 125.626,356.476 125.5,369.5C 123.82,354.014 122.487,338.347 121.5,322.5 Z"/></g>
<g><path style="opacity:1" fill="#202831" d="M 18.5,303.5 C 19.1386,304.097 19.472,304.93 19.5,306C 18.1138,309.694 17.2805,313.527 17,317.5C 15.0236,323.779 12.5236,330.113 9.5,336.5C 9.67285,338.038 10.0062,339.538 10.5,341C 7.2903,349.651 7.95696,357.818 12.5,365.5C 11.1667,365.5 10.5,366.167 10.5,367.5C 10.1667,367.5 9.83333,367.5 9.5,367.5C 9.26242,365.596 8.26242,364.262 6.5,363.5C 6.77089,361.62 6.10422,360.287 4.5,359.5C 3.07954,352.197 3.41287,344.863 5.5,337.5C 7.28252,333.387 8.61586,329.054 9.5,324.5C 11.2132,323.365 11.8799,321.698 11.5,319.5C 13.2766,316.495 14.2766,313.162 14.5,309.5C 16.3417,307.81 17.675,305.81 18.5,303.5 Z"/></g>
<g><path style="opacity:1" fill="#060809" d="M 70.5,335.5 C 70.8333,335.5 71.1667,335.5 71.5,335.5C 72.791,335.263 73.791,335.596 74.5,336.5C 75.1371,358.494 75.6371,380.494 76,402.5C 76.7582,414.232 78.0915,425.899 80,437.5C 80.8729,443.544 82.3729,449.378 84.5,455C 83.9056,455.464 83.2389,455.631 82.5,455.5C 82.1583,454.662 81.4916,454.328 80.5,454.5C 80.5,454.167 80.5,453.833 80.5,453.5C 79.9759,451.694 79.3092,450.028 78.5,448.5C 76.3035,434.207 74.3035,419.874 72.5,405.5C 72.5187,388.316 71.852,371.316 70.5,354.5C 70.5,348.167 70.5,341.833 70.5,335.5 Z"/></g>
<g><path style="opacity:1" fill="#bcbfa7" d="M 303.5,336.5 C 304.833,336.5 306.167,336.5 307.5,336.5C 307.143,341.877 304.143,344.211 298.5,343.5C 299.002,340.331 300.669,337.998 303.5,336.5 Z"/></g>
<g><path style="opacity:1" fill="#b2b59e" d="M 180.5,351.5 C 179.883,351.389 179.383,351.056 179,350.5C 178.814,348.1 178.314,345.766 177.5,343.5C 177.167,343.667 176.833,343.833 176.5,344C 175.792,348.643 174.625,353.143 173,357.5C 170.592,360.62 167.426,361.953 163.5,361.5C 162.539,358.574 161.873,355.574 161.5,352.5C 165.99,362.094 169.823,361.761 173,351.5C 174.416,344.501 175.749,337.501 177,330.5C 178.621,337.434 179.787,344.434 180.5,351.5 Z"/></g>
<g><path style="opacity:1" fill="#585a4d" d="M 51.5,453.5 C 40.2152,454.905 28.8818,455.571 17.5,455.5C 18.3136,450.881 18.6469,446.214 18.5,441.5C 19.2378,427.11 20.5711,412.776 22.5,398.5C 23.29,397.391 23.79,396.058 24,394.5C 24.499,390.179 24.6657,385.846 24.5,381.5C 25.7154,377.276 26.5488,372.943 27,368.5C 38.6764,360.311 50.1764,351.977 61.5,343.5C 64.4135,342.094 66.9135,340.094 69,337.5C 69.6667,357.5 69.6667,377.5 69,397.5C 68.5,398 68,398.5 67.5,399C 68.6667,399.5 69.5,400.333 70,401.5C 71.3179,417.974 73.4846,434.307 76.5,450.5C 69.4998,450.923 62.4998,451.423 55.5,452C 53.9419,452.21 52.6085,452.71 51.5,453.5 Z"/></g>
<g><path style="opacity:1" fill="#0c1112" d="M 68.5,335.5 C 66.1152,338.212 63.7819,340.878 61.5,343.5C 50.1764,351.977 38.6764,360.311 27,368.5C 26.5488,372.943 25.7154,377.276 24.5,381.5C 23.5151,377.366 23.1818,373.032 23.5,368.5C 19.1667,368.5 14.8333,368.5 10.5,368.5C 10.5,368.167 10.5,367.833 10.5,367.5C 10.5,366.167 11.1667,365.5 12.5,365.5C 20.8481,365.661 28.5148,363.494 35.5,359C 42.2527,354.305 48.9194,349.638 55.5,345C 58.3823,339.587 62.7156,336.421 68.5,335.5 Z"/></g>
<g><path style="opacity:1" fill="#9a9d87" d="M 439.5,290.5 C 440.167,293.833 440.833,297.167 441.5,300.5C 444.295,326.749 446.295,353.082 447.5,379.5C 443.943,350.082 441.277,320.416 439.5,290.5 Z"/></g>
<g><path style="opacity:0.369" fill="#949596" d="M 4.5,359.5 C 6.10422,360.287 6.77089,361.62 6.5,363.5C 5.32627,362.486 4.6596,361.153 4.5,359.5 Z"/></g>
<g><path style="opacity:0.075" fill="#9c9da4" d="M 6.5,363.5 C 8.26242,364.262 9.26242,365.596 9.5,367.5C 7.73758,366.738 6.73758,365.404 6.5,363.5 Z"/></g>
<g><path style="opacity:1" fill="#1f201a" d="M 70.5,354.5 C 71.852,371.316 72.5187,388.316 72.5,405.5C 70.7557,388.7 70.0891,371.7 70.5,354.5 Z"/></g>
<g><path style="opacity:1" fill="#060604" d="M 340.5,368.5 C 344.182,368.335 347.848,368.501 351.5,369C 353.967,369.796 355.3,371.463 355.5,374C 351.622,386.301 346.955,398.301 341.5,410C 341.833,410.5 342.167,411 342.5,411.5C 346.442,410.4 350.442,410.233 354.5,411C 358.405,413.475 358.405,416.142 354.5,419C 346.893,422.655 338.893,423.988 330.5,423C 327.606,420.091 326.773,416.591 328,412.5C 332.007,402.325 336.507,392.325 341.5,382.5C 341.167,382.167 340.833,381.833 340.5,381.5C 335.674,384.42 330.674,384.92 325.5,383C 324.144,379.347 325.144,376.347 328.5,374C 332.475,371.854 336.475,370.02 340.5,368.5 Z"/></g>
<g><path style="opacity:1" fill="#070706" d="M 273.5,407.5 C 272.946,400.847 272.612,394.18 272.5,387.5C 268.76,387.759 265.094,387.426 261.5,386.5C 259.814,382.805 260.814,379.971 264.5,378C 268.266,376.441 271.932,374.941 275.5,373.5C 281.472,372.526 287.472,372.359 293.5,373C 294.893,374.171 295.727,375.671 296,377.5C 299.895,374.195 304.395,372.028 309.5,371C 314.166,368.55 318.333,369.05 322,372.5C 322.667,374.167 322.667,375.833 322,377.5C 317.243,381.131 312.076,384.131 306.5,386.5C 304.159,392.869 305.492,394.369 310.5,391C 313.993,389.996 317.159,390.496 320,392.5C 320.753,396.493 319.253,399.326 315.5,401C 312.583,402.528 309.583,403.861 306.5,405C 305.134,407.382 305.467,409.548 307.5,411.5C 312.122,408.511 317.122,407.344 322.5,408C 325.167,411 325.167,414 322.5,417C 316.403,421.392 309.737,424.059 302.5,425C 299.898,424.117 297.731,422.617 296,420.5C 293.613,407.206 292.946,393.873 294,380.5C 291.414,382.545 288.58,384.211 285.5,385.5C 284.32,396.163 284.32,406.829 285.5,417.5C 285.547,420.295 285.047,422.961 284,425.5C 281.333,428.167 278.667,428.167 276,425.5C 274.351,419.64 273.517,413.64 273.5,407.5 Z"/></g>
<g><path style="opacity:1" fill="#060705" d="M 256.5,380.5 C 258.925,386.112 260.925,391.779 262.5,397.5C 263.171,405.798 262.005,413.798 259,421.5C 252.395,428.956 244.562,430.456 235.5,426C 229.442,421.278 225.942,415.111 225,407.5C 224.333,400.833 224.333,394.167 225,387.5C 225.483,383.533 226.816,379.866 229,376.5C 233.195,373.453 236.195,374.453 238,379.5C 237.705,388.822 237.705,398.155 238,407.5C 238.249,412.034 240.415,415.034 244.5,416.5C 247.429,416.072 249.263,414.405 250,411.5C 250.167,409 250.333,406.5 250.5,404C 249.245,395.068 247.745,386.235 246,377.5C 250.544,374.381 254.044,375.381 256.5,380.5 Z"/></g>
<g><path style="opacity:0.212" fill="#b0b0ad" d="M 9.5,367.5 C 9.83333,367.5 10.1667,367.5 10.5,367.5C 10.5,367.833 10.5,368.167 10.5,368.5C 10.2833,372.705 9.61667,376.705 8.5,380.5C 8.58645,376.143 8.91979,371.81 9.5,367.5 Z"/></g>
<g><path style="opacity:1" fill="#656857" d="M 121.5,364.5 C 122.762,371.969 123.429,379.635 123.5,387.5C 121.745,380.077 121.079,372.411 121.5,364.5 Z"/></g>
<g><path style="opacity:1" fill="#b9bda6" d="M 275.5,373.5 C 271.932,374.941 268.266,376.441 264.5,378C 260.814,379.971 259.814,382.805 261.5,386.5C 265.094,387.426 268.76,387.759 272.5,387.5C 272.612,394.18 272.946,400.847 273.5,407.5C 271.863,402.226 270.863,396.559 270.5,390.5C 263.549,387.78 260.883,390.113 262.5,397.5C 260.925,391.779 258.925,386.112 256.5,380.5C 259.114,380.723 260.781,379.556 261.5,377C 265.996,375.112 270.663,373.945 275.5,373.5 Z"/></g>
<g><path style="opacity:1" fill="#82856e" d="M 125.5,369.5 C 127.427,378.926 128.427,388.592 128.5,398.5C 126.857,389.041 125.857,379.375 125.5,369.5 Z"/></g>
<g><path style="opacity:0.31" fill="#b4b6ae" d="M 450.5,375.5 C 451.616,382.646 452.283,389.98 452.5,397.5C 450.895,390.397 450.228,383.063 450.5,375.5 Z"/></g>
<g><path style="opacity:0.722" fill="#939490" d="M 8.5,380.5 C 8.90442,385.783 8.23775,390.783 6.5,395.5C 6.60844,390.29 7.2751,385.29 8.5,380.5 Z"/></g>
<g><path style="opacity:1" fill="#44453e" d="M 68.5,335.5 C 69.1667,335.5 69.8333,335.5 70.5,335.5C 70.5,341.833 70.5,348.167 70.5,354.5C 70.0891,371.7 70.7557,388.7 72.5,405.5C 74.3035,419.874 76.3035,434.207 78.5,448.5C 78.5,449.833 78.5,451.167 78.5,452.5C 69.4818,452.448 60.4818,452.782 51.5,453.5C 52.6085,452.71 53.9419,452.21 55.5,452C 62.4998,451.423 69.4998,450.923 76.5,450.5C 73.4846,434.307 71.3179,417.974 70,401.5C 69.5,400.333 68.6667,399.5 67.5,399C 68,398.5 68.5,398 69,397.5C 69.6667,377.5 69.6667,357.5 69,337.5C 66.9135,340.094 64.4135,342.094 61.5,343.5C 63.7819,340.878 66.1152,338.212 68.5,335.5 Z"/></g>
<g><path style="opacity:1" fill="#979b84" d="M 19.5,400.5 C 18.5732,408.841 17.5732,417.174 16.5,425.5C 15.6295,428.003 14.9628,430.67 14.5,433.5C 13.4217,435.539 12.4217,437.706 11.5,440C 12.7874,443.125 12.7874,446.291 11.5,449.5C 9.33259,450.954 7.33259,450.788 5.5,449C 5.65543,443.316 5.98876,437.483 6.5,431.5C 8.32033,411.285 10.1537,390.952 12,370.5C 15.3936,369.544 18.8936,369.211 22.5,369.5C 21.5934,379.845 20.5934,390.178 19.5,400.5 Z"/></g>
<g><path style="opacity:1" fill="#33352c" d="M 110.5,384.5 C 112.225,393.607 112.892,402.94 112.5,412.5C 111.524,403.34 110.857,394.006 110.5,384.5 Z"/></g>
<g><path style="opacity:1" fill="#7c7f6c" d="M 449.5,401.5 C 451.242,411.277 452.242,421.277 452.5,431.5C 450.71,421.727 449.71,411.727 449.5,401.5 Z"/></g>
<g><path style="opacity:1" fill="#5e5f55" d="M 442.5,276.5 C 445.406,309.469 448.073,342.469 450.5,375.5C 450.228,383.063 450.895,390.397 452.5,397.5C 455.213,421.724 457.213,446.057 458.5,470.5C 458.873,480.854 459.539,491.187 460.5,501.5C 459.833,501.5 459.167,501.5 458.5,501.5C 458.089,496.662 457.422,491.995 456.5,487.5C 455.813,480.187 455.479,472.854 455.5,465.5C 455.477,459.288 454.81,453.288 453.5,447.5C 452.512,442.36 452.179,437.026 452.5,431.5C 452.242,421.277 451.242,411.277 449.5,401.5C 449.698,394.072 449.031,386.739 447.5,379.5C 446.295,353.082 444.295,326.749 441.5,300.5C 441.438,294.654 441.105,288.821 440.5,283C 440.533,280.39 441.2,278.223 442.5,276.5 Z"/></g>
<g><path style="opacity:0.608" fill="#a3a49f" d="M 4.5,413.5 C 4.74288,421.795 3.74288,429.795 1.5,437.5C 1.65651,429.26 2.65651,421.26 4.5,413.5 Z"/></g>
<g><path style="opacity:1" fill="#545749" d="M 16.5,425.5 C 16.784,431.417 16.1173,437.084 14.5,442.5C 14.5,439.5 14.5,436.5 14.5,433.5C 14.9628,430.67 15.6295,428.003 16.5,425.5 Z"/></g>
<g><path style="opacity:1" fill="#1e1f18" d="M 22.5,398.5 C 20.5711,412.776 19.2378,427.11 18.5,441.5C 16.9216,446.583 16.2549,451.916 16.5,457.5C 17.791,457.263 18.791,457.596 19.5,458.5C 16.4299,458.632 13.4299,458.299 10.5,457.5C 11.5,456.833 12.5,456.167 13.5,455.5C 13.5865,451.143 13.9198,446.81 14.5,442.5C 16.1173,437.084 16.784,431.417 16.5,425.5C 17.5732,417.174 18.5732,408.841 19.5,400.5C 20.7553,394.657 21.922,388.657 23,382.5C 23.5285,387.854 23.3619,393.187 22.5,398.5 Z"/></g>
<g><path style="opacity:1" fill="#585a4b" d="M 130.5,423.5 C 131.806,435.328 132.806,447.328 133.5,459.5C 130.984,447.779 129.984,435.779 130.5,423.5 Z"/></g>
<g><path style="opacity:1" fill="#101922" d="M 74.5,336.5 C 76.1768,340.977 77.1768,345.81 77.5,351C 74.6534,384.486 76.8201,417.652 84,450.5C 85.5196,453.382 86.8529,456.382 88,459.5C 91.7143,463.162 95.2143,466.328 98.5,469C 103.517,469.195 108.184,470.195 112.5,472C 113.022,471.439 113.355,470.772 113.5,470C 112.537,459.866 111.87,449.699 111.5,439.5C 114.016,451.225 115.016,463.225 114.5,475.5C 109.602,474.443 104.935,472.777 100.5,470.5C 100.167,470.667 99.8333,470.833 99.5,471C 100.381,471.708 101.047,472.542 101.5,473.5C 100.833,473.5 100.167,473.5 99.5,473.5C 99.0269,472.094 98.0269,471.427 96.5,471.5C 95.5084,471.672 94.8417,471.338 94.5,470.5C 93.0892,468.086 91.0892,466.419 88.5,465.5C 86.5113,462.194 84.5113,458.861 82.5,455.5C 83.2389,455.631 83.9056,455.464 84.5,455C 82.3729,449.378 80.8729,443.544 80,437.5C 78.0915,425.899 76.7582,414.232 76,402.5C 75.6371,380.494 75.1371,358.494 74.5,336.5 Z"/></g>
<g><path style="opacity:1" fill="#8b8e7c" d="M 6.5,431.5 C 5.98876,437.483 5.65543,443.316 5.5,449C 7.33259,450.788 9.33259,450.954 11.5,449.5C 12.7874,446.291 12.7874,443.125 11.5,440C 12.4217,437.706 13.4217,435.539 14.5,433.5C 14.5,436.5 14.5,439.5 14.5,442.5C 13.9198,446.81 13.5865,451.143 13.5,455.5C 6.39262,454.895 3.05929,451.062 3.5,444C 3.64295,439.495 4.64295,435.328 6.5,431.5 Z"/></g>
<g><path style="opacity:1" fill="#696b5d" d="M 115.5,436.5 C 117.298,445.263 118.298,454.263 118.5,463.5C 117.833,461.167 117.167,458.833 116.5,456.5C 116.287,449.826 115.954,443.159 115.5,436.5 Z"/></g>
<g><path style="opacity:0.963" fill="#474840" d="M 10.5,368.5 C 14.8333,368.5 19.1667,368.5 23.5,368.5C 23.1818,373.032 23.5151,377.366 24.5,381.5C 24.6657,385.846 24.499,390.179 24,394.5C 23.79,396.058 23.29,397.391 22.5,398.5C 23.3619,393.187 23.5285,387.854 23,382.5C 21.922,388.657 20.7553,394.657 19.5,400.5C 20.5934,390.178 21.5934,379.845 22.5,369.5C 18.8936,369.211 15.3936,369.544 12,370.5C 10.1537,390.952 8.32033,411.285 6.5,431.5C 4.64295,435.328 3.64295,439.495 3.5,444C 3.05929,451.062 6.39262,454.895 13.5,455.5C 12.5,456.167 11.5,456.833 10.5,457.5C 9.83333,457.5 9.16667,457.5 8.5,457.5C 8.02694,456.094 7.02694,455.427 5.5,455.5C 4.73769,453.738 3.40435,452.738 1.5,452.5C 0.833333,452.5 0.166667,452.5 -0.5,452.5C -0.5,450.167 -0.5,447.833 -0.5,445.5C 0.166667,442.833 0.833333,440.167 1.5,437.5C 3.74288,429.795 4.74288,421.795 4.5,413.5C 4.65938,407.399 5.32604,401.399 6.5,395.5C 8.23775,390.783 8.90442,385.783 8.5,380.5C 9.61667,376.705 10.2833,372.705 10.5,368.5 Z"/></g>
<g><path style="opacity:0.404" fill="#999b95" d="M 1.5,452.5 C 3.40435,452.738 4.73769,453.738 5.5,455.5C 3.59565,455.262 2.26231,454.262 1.5,452.5 Z"/></g>
<g><path style="opacity:0.875" fill="#2e2f29" d="M 18.5,441.5 C 18.6469,446.214 18.3136,450.881 17.5,455.5C 28.8818,455.571 40.2152,454.905 51.5,453.5C 60.4818,452.782 69.4818,452.448 78.5,452.5C 78.5,451.167 78.5,449.833 78.5,448.5C 79.3092,450.028 79.9759,451.694 80.5,453.5C 71.4969,453.875 62.4969,454.375 53.5,455C 51.9419,455.21 50.6085,455.71 49.5,456.5C 48.1667,456.5 46.8333,456.5 45.5,456.5C 36.7244,456.412 28.0577,457.079 19.5,458.5C 18.791,457.596 17.791,457.263 16.5,457.5C 16.2549,451.916 16.9216,446.583 18.5,441.5 Z"/></g>
<g><path style="opacity:0.082" fill="#a0a19e" d="M 80.5,453.5 C 80.5,453.833 80.5,454.167 80.5,454.5C 70.1737,455.245 59.8404,455.911 49.5,456.5C 50.6085,455.71 51.9419,455.21 53.5,455C 62.4969,454.375 71.4969,453.875 80.5,453.5 Z"/></g>
<g><path style="opacity:0.655" fill="#919293" d="M 80.5,454.5 C 81.4916,454.328 82.1583,454.662 82.5,455.5C 84.5113,458.861 86.5113,462.194 88.5,465.5C 85.0918,462.417 82.4251,458.751 80.5,454.5 Z"/></g>
<g><path style="opacity:0.255" fill="#b2b2a9" d="M 5.5,455.5 C 7.02694,455.427 8.02694,456.094 8.5,457.5C 6.97306,457.573 5.97306,456.906 5.5,455.5 Z"/></g>
<g><path style="opacity:0.208" fill="#999997" d="M 45.5,456.5 C 35.9592,457.707 26.2925,459.041 16.5,460.5C 13.4452,460.263 10.7785,459.263 8.5,457.5C 9.16667,457.5 9.83333,457.5 10.5,457.5C 13.4299,458.299 16.4299,458.632 19.5,458.5C 28.0577,457.079 36.7244,456.412 45.5,456.5 Z"/></g>
<g><path style="opacity:1" fill="#7d806d" d="M 453.5,447.5 C 454.81,453.288 455.477,459.288 455.5,465.5C 453.943,459.739 453.276,453.739 453.5,447.5 Z"/></g>
<g><path style="opacity:0.612" fill="#97999b" d="M 88.5,465.5 C 91.0892,466.419 93.0892,468.086 94.5,470.5C 91.9108,469.581 89.9108,467.914 88.5,465.5 Z"/></g>
<g><path style="opacity:1" fill="#9b9e87" d="M 134.5,462.5 C 135.302,463.952 135.802,465.618 136,467.5C 136.5,475.493 136.666,483.493 136.5,491.5C 135.833,491.5 135.5,491.167 135.5,490.5C 134.817,481.182 134.483,471.849 134.5,462.5 Z"/></g>
<g><path style="opacity:1" fill="#6e715f" d="M 126.5,427.5 C 127.644,431.972 128.477,436.638 129,441.5C 129.617,452.528 130.45,463.528 131.5,474.5C 131.995,482.66 132.662,490.66 133.5,498.5C 134.491,505.313 134.825,512.313 134.5,519.5C 130.845,489.08 128.178,458.413 126.5,427.5 Z"/></g>
<g><path style="opacity:0.188" fill="#c1c1c2" d="M 96.5,471.5 C 98.0269,471.427 99.0269,472.094 99.5,473.5C 97.9731,473.573 96.9731,472.906 96.5,471.5 Z"/></g>
<g><path style="opacity:0.722" fill="#8b8d8e" d="M 99.5,473.5 C 100.167,473.5 100.833,473.5 101.5,473.5C 104.331,474.079 106.664,475.412 108.5,477.5C 105.088,476.925 102.088,475.592 99.5,473.5 Z"/></g>
<g><path style="opacity:0.318" fill="#b5b6b3" d="M 458.5,470.5 C 459.746,481.032 461.08,491.699 462.5,502.5C 462.41,504.425 461.41,505.592 459.5,506C 426.195,509.216 392.862,512.049 359.5,514.5C 359.5,514.167 359.5,513.833 359.5,513.5C 393.22,510.83 426.886,507.83 460.5,504.5C 460.5,503.5 460.5,502.5 460.5,501.5C 459.539,491.187 458.873,480.854 458.5,470.5 Z"/></g>
<g><path style="opacity:0.286" fill="#a5a6a9" d="M 108.5,477.5 C 110.5,477.833 112.5,478.167 114.5,478.5C 114.833,479.167 115.167,479.833 115.5,480.5C 112.843,480.065 110.509,479.065 108.5,477.5 Z"/></g>
<g><path style="opacity:1" fill="#999d85" d="M 120.5,360.5 C 121.434,361.568 121.768,362.901 121.5,364.5C 121.079,372.411 121.745,380.077 123.5,387.5C 124.847,400.661 125.847,413.995 126.5,427.5C 128.178,458.413 130.845,489.08 134.5,519.5C 135.477,522.287 135.81,525.287 135.5,528.5C 131.051,528.627 126.884,527.627 123,525.5C 121.085,504.862 119.585,484.195 118.5,463.5C 118.298,454.263 117.298,445.263 115.5,436.5C 114.97,428.31 113.97,420.31 112.5,412.5C 112.892,402.94 112.225,393.607 110.5,384.5C 110.5,381.5 110.5,378.5 110.5,375.5C 110.283,365.777 110.283,356.111 110.5,346.5C 110.087,343.434 109.42,340.434 108.5,337.5C 109.282,331.349 109.282,325.349 108.5,319.5C 111.224,314.82 113.057,309.154 114,302.5C 115.264,314.325 116.43,326.158 117.5,338C 115.877,342.028 115.377,346.195 116,350.5C 116.853,352.125 117.853,352.458 119,351.5C 119.181,354.695 119.681,357.695 120.5,360.5 Z"/></g>
<g><path style="opacity:1" fill="#323425" d="M 133.5,461.5 C 134.167,461.5 134.5,461.833 134.5,462.5C 134.483,471.849 134.817,481.182 135.5,490.5C 134.686,488.369 134.186,486.036 134,483.5C 133.501,488.489 133.334,493.489 133.5,498.5C 132.662,490.66 131.995,482.66 131.5,474.5C 132.29,475.609 132.79,476.942 133,478.5C 133.499,472.843 133.666,467.176 133.5,461.5 Z"/></g>
<g><path style="opacity:0.278" fill="#aeaeac" d="M 115.5,480.5 C 117.442,485.056 118.108,490.056 117.5,495.5C 116.734,490.637 116.068,485.637 115.5,480.5 Z"/></g>
<g><path style="opacity:1" fill="#a4a892" d="M 456.5,487.5 C 457.422,491.995 458.089,496.662 458.5,501.5C 451.683,502.565 444.683,503.232 437.5,503.5C 431.804,503.447 426.138,503.78 420.5,504.5C 421.263,503.732 422.263,503.232 423.5,503C 434.491,501.945 445.491,501.112 456.5,500.5C 456.5,496.167 456.5,491.833 456.5,487.5 Z"/></g>
<g><path style="opacity:1" fill="#565849" d="M 437.5,503.5 C 432.097,505.205 426.43,505.872 420.5,505.5C 420.5,505.167 420.5,504.833 420.5,504.5C 426.138,503.78 431.804,503.447 437.5,503.5 Z"/></g>
<g><path style="opacity:1" fill="#9da18a" d="M 136.5,491.5 C 137.812,493.743 138.478,496.41 138.5,499.5C 138.983,509.197 139.65,518.864 140.5,528.5C 146.824,527.975 153.158,527.475 159.5,527C 160.416,526.626 161.25,526.126 162,525.5C 165.394,526.456 168.894,526.789 172.5,526.5C 171.833,527.167 171.167,527.833 170.5,528.5C 165.833,528.5 161.167,528.5 156.5,528.5C 150.848,529.032 145.181,529.365 139.5,529.5C 138.343,516.896 137.343,504.229 136.5,491.5 Z"/></g>
<g><path style="opacity:1" fill="#5c5f4f" d="M 394.5,507.5 C 386.743,509.269 378.743,509.935 370.5,509.5C 378.284,507.99 386.284,507.323 394.5,507.5 Z"/></g>
<g><path style="opacity:0.347" fill="#a0a09e" d="M 117.5,495.5 C 119.078,500.583 119.745,505.916 119.5,511.5C 119.167,511.5 118.833,511.5 118.5,511.5C 117.6,506.228 117.267,500.895 117.5,495.5 Z"/></g>
<g><path style="opacity:1" fill="#626552" d="M 370.5,509.5 C 365.04,510.737 359.373,511.404 353.5,511.5C 354.609,510.71 355.942,510.21 357.5,510C 361.821,509.501 366.154,509.334 370.5,509.5 Z"/></g>
<g><path style="opacity:1" fill="#25261f" d="M 458.5,501.5 C 459.167,501.5 459.833,501.5 460.5,501.5C 460.5,502.5 460.5,503.5 460.5,504.5C 426.886,507.83 393.22,510.83 359.5,513.5C 355.818,513.665 352.152,513.499 348.5,513C 349.056,512.617 349.389,512.117 349.5,511.5C 350.833,511.5 352.167,511.5 353.5,511.5C 359.373,511.404 365.04,510.737 370.5,509.5C 378.743,509.935 386.743,509.269 394.5,507.5C 403.127,506.477 411.794,505.811 420.5,505.5C 426.43,505.872 432.097,505.205 437.5,503.5C 444.683,503.232 451.683,502.565 458.5,501.5 Z"/></g>
<g><path style="opacity:1" fill="#4a4b3f" d="M 349.5,511.5 C 349.389,512.117 349.056,512.617 348.5,513C 352.152,513.499 355.818,513.665 359.5,513.5C 359.5,513.833 359.5,514.167 359.5,514.5C 359.167,514.5 358.833,514.5 358.5,514.5C 354.833,514.5 351.167,514.5 347.5,514.5C 341.69,513.51 335.69,513.177 329.5,513.5C 335.928,511.874 342.595,511.207 349.5,511.5 Z"/></g>
<g><path style="opacity:1" fill="#777a66" d="M 327.5,513.5 C 321.334,514.398 315,515.064 308.5,515.5C 309.263,514.732 310.263,514.232 311.5,514C 316.823,513.501 322.156,513.334 327.5,513.5 Z"/></g>
<g><path style="opacity:1" fill="#777a67" d="M 291.5,516.5 C 284.07,518.197 276.403,518.864 268.5,518.5C 275.989,517.487 283.656,516.82 291.5,516.5 Z"/></g>
<g><path style="opacity:1" fill="#2c2d25" d="M 327.5,513.5 C 328.167,513.5 328.833,513.5 329.5,513.5C 335.69,513.177 341.69,513.51 347.5,514.5C 318.661,517.231 289.994,520.231 261.5,523.5C 257.03,524.486 252.363,524.819 247.5,524.5C 228.815,525.549 210.148,526.882 191.5,528.5C 187.486,528.666 183.486,528.499 179.5,528C 185.064,527.751 190.398,526.918 195.5,525.5C 202.396,525.706 209.063,525.039 215.5,523.5C 217.415,523.784 219.081,523.451 220.5,522.5C 236.739,522.298 252.739,520.964 268.5,518.5C 276.403,518.864 284.07,518.197 291.5,516.5C 297.075,515.548 302.741,515.214 308.5,515.5C 315,515.064 321.334,514.398 327.5,513.5 Z"/></g>
<g><path style="opacity:0.353" fill="#afafad" d="M 118.5,511.5 C 118.833,511.5 119.167,511.5 119.5,511.5C 120.275,516.797 120.608,522.13 120.5,527.5C 119.043,522.402 118.376,517.069 118.5,511.5 Z"/></g>
<g><path style="opacity:1" fill="#777a67" d="M 268.5,518.5 C 252.739,520.964 236.739,522.298 220.5,522.5C 236.322,520.82 252.322,519.487 268.5,518.5 Z"/></g>
<g><path style="opacity:0.118" fill="#bbbbb9" d="M 347.5,514.5 C 351.167,514.5 354.833,514.5 358.5,514.5C 326.371,518.141 294.038,521.141 261.5,523.5C 289.994,520.231 318.661,517.231 347.5,514.5 Z"/></g>
<g><path style="opacity:1" fill="#5e6052" d="M 215.5,523.5 C 209.063,525.039 202.396,525.706 195.5,525.5C 201.937,523.961 208.604,523.294 215.5,523.5 Z"/></g>
<g><path style="opacity:0.906" fill="#3d3f33" d="M 195.5,525.5 C 190.398,526.918 185.064,527.751 179.5,528C 183.486,528.499 187.486,528.666 191.5,528.5C 187.03,529.486 182.363,529.819 177.5,529.5C 175.393,528.532 173.059,528.198 170.5,528.5C 171.167,527.833 171.833,527.167 172.5,526.5C 180.179,526.404 187.846,526.07 195.5,525.5 Z"/></g>
<g><path style="opacity:0.91" fill="#25261e" d="M 116.5,456.5 C 117.167,458.833 117.833,461.167 118.5,463.5C 119.585,484.195 121.085,504.862 123,525.5C 126.884,527.627 131.051,528.627 135.5,528.5C 135.81,525.287 135.477,522.287 134.5,519.5C 134.825,512.313 134.491,505.313 133.5,498.5C 133.334,493.489 133.501,488.489 134,483.5C 134.186,486.036 134.686,488.369 135.5,490.5C 135.5,491.167 135.833,491.5 136.5,491.5C 137.343,504.229 138.343,516.896 139.5,529.5C 145.233,530.798 150.9,530.465 156.5,528.5C 161.167,528.5 165.833,528.5 170.5,528.5C 173.059,528.198 175.393,528.532 177.5,529.5C 165.688,530.804 153.855,532.138 142,533.5C 134.579,532.318 127.412,530.318 120.5,527.5C 120.608,522.13 120.275,516.797 119.5,511.5C 119.745,505.916 119.078,500.583 117.5,495.5C 118.108,490.056 117.442,485.056 115.5,480.5C 115.167,479.833 114.833,479.167 114.5,478.5C 115.496,478.414 116.329,478.748 117,479.5C 117.404,471.826 117.238,464.159 116.5,456.5 Z"/></g>
<g><path style="opacity:0.173" fill="#aeaead" d="M 247.5,524.5 C 212.853,528.218 178.019,531.551 143,534.5C 135.564,534.016 128.397,532.349 121.5,529.5C 120.702,529.043 120.369,528.376 120.5,527.5C 127.412,530.318 134.579,532.318 142,533.5C 153.855,532.138 165.688,530.804 177.5,529.5C 182.363,529.819 187.03,529.486 191.5,528.5C 210.148,526.882 228.815,525.549 247.5,524.5 Z"/></g>
<g><path style="opacity:1" fill="#676a57" d="M 156.5,528.5 C 150.9,530.465 145.233,530.798 139.5,529.5C 145.181,529.365 150.848,529.032 156.5,528.5 Z"/></g>
</svg>
